G04 #@! TF.GenerationSoftware,KiCad,Pcbnew,(5.0.0)*
G04 #@! TF.CreationDate,2018-09-26T11:49:41+02:00*
G04 #@! TF.ProjectId,TinyADC,54696E794144432E6B696361645F7063,rev?*
G04 #@! TF.SameCoordinates,Original*
G04 #@! TF.FileFunction,Soldermask,Bot*
G04 #@! TF.FilePolarity,Negative*
%FSLAX46Y46*%
G04 Gerber Fmt 4.6, Leading zero omitted, Abs format (unit mm)*
G04 Created by KiCad (PCBNEW (5.0.0)) date 09/26/18 11:49:41*
%MOMM*%
%LPD*%
G01*
G04 APERTURE LIST*
%ADD10R,2.127200X2.127200*%
%ADD11O,2.127200X2.127200*%
%ADD12C,2.000000*%
%ADD13R,3.000000X2.400000*%
%ADD14O,3.000000X2.400000*%
%ADD15O,2.000000X2.000000*%
%ADD16R,2.000000X2.000000*%
%ADD17R,2.100000X2.100000*%
%ADD18O,2.100000X2.100000*%
%ADD19C,2.600000*%
G04 APERTURE END LIST*
D10*
G04 #@! TO.C,J5*
X143256000Y-108712000D03*
D11*
X145796000Y-108712000D03*
X143256000Y-111252000D03*
X145796000Y-111252000D03*
X143256000Y-113792000D03*
X145796000Y-113792000D03*
G04 #@! TD*
D12*
G04 #@! TO.C,C1*
X137628000Y-103378000D03*
X135128000Y-103378000D03*
G04 #@! TD*
G04 #@! TO.C,C2*
X132548000Y-103378000D03*
X130048000Y-103378000D03*
G04 #@! TD*
D13*
G04 #@! TO.C,J2*
X153162000Y-104902000D03*
D14*
X153162000Y-107442000D03*
X153162000Y-109982000D03*
X153162000Y-112522000D03*
X153162000Y-115062000D03*
G04 #@! TD*
D13*
G04 #@! TO.C,J3*
X122936000Y-112522000D03*
D14*
X122936000Y-115062000D03*
X122936000Y-117602000D03*
G04 #@! TD*
G04 #@! TO.C,J4*
X122936000Y-108458000D03*
X122936000Y-105918000D03*
D13*
X122936000Y-103378000D03*
G04 #@! TD*
D15*
G04 #@! TO.C,R1*
X162366672Y-112268000D03*
D12*
X162366672Y-104648000D03*
G04 #@! TD*
G04 #@! TO.C,R2*
X158556672Y-104648000D03*
D15*
X158556672Y-112268000D03*
G04 #@! TD*
D12*
G04 #@! TO.C,R3*
X137668000Y-106426000D03*
D15*
X130048000Y-106426000D03*
G04 #@! TD*
D16*
G04 #@! TO.C,U1*
X130048000Y-109982000D03*
D15*
X137668000Y-117602000D03*
X130048000Y-112522000D03*
X137668000Y-115062000D03*
X130048000Y-115062000D03*
X137668000Y-112522000D03*
X130048000Y-117602000D03*
X137668000Y-109982000D03*
G04 #@! TD*
D17*
G04 #@! TO.C,J1*
X150114000Y-101092000D03*
D18*
X152654000Y-101092000D03*
X155194000Y-101092000D03*
G04 #@! TD*
D19*
G04 #@! TO.C,MH1*
X119126000Y-101346000D03*
G04 #@! TD*
G04 #@! TO.C,MH2*
X119126000Y-119634000D03*
G04 #@! TD*
G04 #@! TO.C,MH3*
X162814000Y-119634000D03*
G04 #@! TD*
G04 #@! TO.C,MH4*
X162814000Y-101346000D03*
G04 #@! TD*
M02*
