G04 #@! TF.GenerationSoftware,KiCad,Pcbnew,(5.0.0)*
G04 #@! TF.CreationDate,2018-09-26T11:49:41+02:00*
G04 #@! TF.ProjectId,TinyADC,54696E794144432E6B696361645F7063,rev?*
G04 #@! TF.SameCoordinates,Original*
G04 #@! TF.FileFunction,Legend,Top*
G04 #@! TF.FilePolarity,Positive*
%FSLAX46Y46*%
G04 Gerber Fmt 4.6, Leading zero omitted, Abs format (unit mm)*
G04 Created by KiCad (PCBNEW (5.0.0)) date 09/26/18 11:49:41*
%MOMM*%
%LPD*%
G01*
G04 APERTURE LIST*
%ADD10C,0.120000*%
%ADD11C,0.150000*%
G04 APERTURE END LIST*
D10*
G04 #@! TO.C,J5*
X149326000Y-103382000D02*
X149326000Y-119122000D01*
X149326000Y-119122000D02*
X139726000Y-119122000D01*
X139726000Y-119122000D02*
X139726000Y-103382000D01*
X139726000Y-103382000D02*
X149326000Y-103382000D01*
G04 #@! TO.C,C1*
X136965000Y-104239000D02*
X135791000Y-104239000D01*
X136965000Y-102517000D02*
X135791000Y-102517000D01*
G04 #@! TO.C,C2*
X130711000Y-104239000D02*
X131885000Y-104239000D01*
X130711000Y-102517000D02*
X131885000Y-102517000D01*
G04 #@! TO.C,J2*
X156182000Y-103532000D02*
X150182000Y-103532000D01*
X150182000Y-103532000D02*
X150182000Y-116432000D01*
X150182000Y-116432000D02*
X156182000Y-116432000D01*
X156182000Y-116432000D02*
X156182000Y-103532000D01*
X150182000Y-104902000D02*
X151182000Y-104902000D01*
X151182000Y-104902000D02*
X151182000Y-115062000D01*
X151182000Y-115062000D02*
X150182000Y-115062000D01*
X151182000Y-104902000D02*
X151612000Y-105152000D01*
X151612000Y-105152000D02*
X151612000Y-114812000D01*
X151612000Y-114812000D02*
X151182000Y-115062000D01*
X150182000Y-105152000D02*
X151182000Y-105152000D01*
X150182000Y-114812000D02*
X151182000Y-114812000D01*
X156182000Y-104102000D02*
X155562000Y-104102000D01*
X155562000Y-104102000D02*
X155562000Y-105702000D01*
X155562000Y-105702000D02*
X156182000Y-105702000D01*
X156182000Y-106642000D02*
X155562000Y-106642000D01*
X155562000Y-106642000D02*
X155562000Y-108242000D01*
X155562000Y-108242000D02*
X156182000Y-108242000D01*
X156182000Y-109182000D02*
X155562000Y-109182000D01*
X155562000Y-109182000D02*
X155562000Y-110782000D01*
X155562000Y-110782000D02*
X156182000Y-110782000D01*
X156182000Y-111722000D02*
X155562000Y-111722000D01*
X155562000Y-111722000D02*
X155562000Y-113322000D01*
X155562000Y-113322000D02*
X156182000Y-113322000D01*
X156182000Y-114262000D02*
X155562000Y-114262000D01*
X155562000Y-114262000D02*
X155562000Y-115862000D01*
X155562000Y-115862000D02*
X156182000Y-115862000D01*
G04 #@! TO.C,J3*
X125956000Y-111152000D02*
X119956000Y-111152000D01*
X119956000Y-111152000D02*
X119956000Y-118972000D01*
X119956000Y-118972000D02*
X125956000Y-118972000D01*
X125956000Y-118972000D02*
X125956000Y-111152000D01*
X119956000Y-112522000D02*
X120956000Y-112522000D01*
X120956000Y-112522000D02*
X120956000Y-117602000D01*
X120956000Y-117602000D02*
X119956000Y-117602000D01*
X120956000Y-112522000D02*
X121386000Y-112772000D01*
X121386000Y-112772000D02*
X121386000Y-117352000D01*
X121386000Y-117352000D02*
X120956000Y-117602000D01*
X119956000Y-112772000D02*
X120956000Y-112772000D01*
X119956000Y-117352000D02*
X120956000Y-117352000D01*
X125956000Y-111722000D02*
X125336000Y-111722000D01*
X125336000Y-111722000D02*
X125336000Y-113322000D01*
X125336000Y-113322000D02*
X125956000Y-113322000D01*
X125956000Y-114262000D02*
X125336000Y-114262000D01*
X125336000Y-114262000D02*
X125336000Y-115862000D01*
X125336000Y-115862000D02*
X125956000Y-115862000D01*
X125956000Y-116802000D02*
X125336000Y-116802000D01*
X125336000Y-116802000D02*
X125336000Y-118402000D01*
X125336000Y-118402000D02*
X125956000Y-118402000D01*
G04 #@! TO.C,J4*
X125336000Y-109258000D02*
X125956000Y-109258000D01*
X125336000Y-107658000D02*
X125336000Y-109258000D01*
X125956000Y-107658000D02*
X125336000Y-107658000D01*
X125336000Y-106718000D02*
X125956000Y-106718000D01*
X125336000Y-105118000D02*
X125336000Y-106718000D01*
X125956000Y-105118000D02*
X125336000Y-105118000D01*
X125336000Y-104178000D02*
X125956000Y-104178000D01*
X125336000Y-102578000D02*
X125336000Y-104178000D01*
X125956000Y-102578000D02*
X125336000Y-102578000D01*
X119956000Y-108208000D02*
X120956000Y-108208000D01*
X119956000Y-103628000D02*
X120956000Y-103628000D01*
X121386000Y-108208000D02*
X120956000Y-108458000D01*
X121386000Y-103628000D02*
X121386000Y-108208000D01*
X120956000Y-103378000D02*
X121386000Y-103628000D01*
X120956000Y-108458000D02*
X119956000Y-108458000D01*
X120956000Y-103378000D02*
X120956000Y-108458000D01*
X119956000Y-103378000D02*
X120956000Y-103378000D01*
X125956000Y-109828000D02*
X125956000Y-102008000D01*
X119956000Y-109828000D02*
X125956000Y-109828000D01*
X119956000Y-102008000D02*
X119956000Y-109828000D01*
X125956000Y-102008000D02*
X119956000Y-102008000D01*
G04 #@! TO.C,R1*
X161056672Y-111668000D02*
X161386672Y-111668000D01*
X161056672Y-105248000D02*
X161056672Y-111668000D01*
X161386672Y-105248000D02*
X161056672Y-105248000D01*
X163676672Y-111668000D02*
X163346672Y-111668000D01*
X163676672Y-105248000D02*
X163676672Y-111668000D01*
X163346672Y-105248000D02*
X163676672Y-105248000D01*
G04 #@! TO.C,R2*
X159536672Y-105248000D02*
X159866672Y-105248000D01*
X159866672Y-105248000D02*
X159866672Y-111668000D01*
X159866672Y-111668000D02*
X159536672Y-111668000D01*
X157576672Y-105248000D02*
X157246672Y-105248000D01*
X157246672Y-105248000D02*
X157246672Y-111668000D01*
X157246672Y-111668000D02*
X157576672Y-111668000D01*
G04 #@! TO.C,R3*
X137068000Y-107406000D02*
X137068000Y-107736000D01*
X137068000Y-107736000D02*
X130648000Y-107736000D01*
X130648000Y-107736000D02*
X130648000Y-107406000D01*
X137068000Y-105446000D02*
X137068000Y-105116000D01*
X137068000Y-105116000D02*
X130648000Y-105116000D01*
X130648000Y-105116000D02*
X130648000Y-105446000D01*
G04 #@! TO.C,U1*
X132858000Y-108592000D02*
X131088000Y-108592000D01*
X131088000Y-108592000D02*
X131088000Y-118992000D01*
X131088000Y-118992000D02*
X136628000Y-118992000D01*
X136628000Y-118992000D02*
X136628000Y-108592000D01*
X136628000Y-108592000D02*
X134858000Y-108592000D01*
X134858000Y-108592000D02*
G75*
G02X132858000Y-108592000I-1000000J0D01*
G01*
G04 #@! TO.C,J1*
X156524000Y-102422000D02*
X156524000Y-99762000D01*
X151384000Y-102422000D02*
X156524000Y-102422000D01*
X151384000Y-99762000D02*
X156524000Y-99762000D01*
X151384000Y-102422000D02*
X151384000Y-99762000D01*
X150114000Y-102422000D02*
X148784000Y-102422000D01*
X148784000Y-102422000D02*
X148784000Y-101092000D01*
G04 #@! TO.C,J5*
D11*
X150208380Y-112045333D02*
X150922666Y-112045333D01*
X151065523Y-112092952D01*
X151160761Y-112188190D01*
X151208380Y-112331047D01*
X151208380Y-112426285D01*
X150208380Y-111092952D02*
X150208380Y-111569142D01*
X150684571Y-111616761D01*
X150636952Y-111569142D01*
X150589333Y-111473904D01*
X150589333Y-111235809D01*
X150636952Y-111140571D01*
X150684571Y-111092952D01*
X150779809Y-111045333D01*
X151017904Y-111045333D01*
X151113142Y-111092952D01*
X151160761Y-111140571D01*
X151208380Y-111235809D01*
X151208380Y-111473904D01*
X151160761Y-111569142D01*
X151113142Y-111616761D01*
D10*
X141988380Y-108446285D02*
X141988380Y-109017714D01*
X141988380Y-108732000D02*
X140988380Y-108732000D01*
X141131238Y-108827238D01*
X141226476Y-108922476D01*
X141274095Y-109017714D01*
G04 #@! TO.C,C1*
D11*
X136211333Y-105845142D02*
X136163714Y-105892761D01*
X136020857Y-105940380D01*
X135925619Y-105940380D01*
X135782761Y-105892761D01*
X135687523Y-105797523D01*
X135639904Y-105702285D01*
X135592285Y-105511809D01*
X135592285Y-105368952D01*
X135639904Y-105178476D01*
X135687523Y-105083238D01*
X135782761Y-104988000D01*
X135925619Y-104940380D01*
X136020857Y-104940380D01*
X136163714Y-104988000D01*
X136211333Y-105035619D01*
X137163714Y-105940380D02*
X136592285Y-105940380D01*
X136878000Y-105940380D02*
X136878000Y-104940380D01*
X136782761Y-105083238D01*
X136687523Y-105178476D01*
X136592285Y-105226095D01*
G04 #@! TO.C,C2*
X131131333Y-101625142D02*
X131083714Y-101672761D01*
X130940857Y-101720380D01*
X130845619Y-101720380D01*
X130702761Y-101672761D01*
X130607523Y-101577523D01*
X130559904Y-101482285D01*
X130512285Y-101291809D01*
X130512285Y-101148952D01*
X130559904Y-100958476D01*
X130607523Y-100863238D01*
X130702761Y-100768000D01*
X130845619Y-100720380D01*
X130940857Y-100720380D01*
X131083714Y-100768000D01*
X131131333Y-100815619D01*
X131512285Y-100815619D02*
X131559904Y-100768000D01*
X131655142Y-100720380D01*
X131893238Y-100720380D01*
X131988476Y-100768000D01*
X132036095Y-100815619D01*
X132083714Y-100910857D01*
X132083714Y-101006095D01*
X132036095Y-101148952D01*
X131464666Y-101720380D01*
X132083714Y-101720380D01*
G04 #@! TO.C,J2*
X157114380Y-106235333D02*
X157828666Y-106235333D01*
X157971523Y-106282952D01*
X158066761Y-106378190D01*
X158114380Y-106521047D01*
X158114380Y-106616285D01*
X157209619Y-105806761D02*
X157162000Y-105759142D01*
X157114380Y-105663904D01*
X157114380Y-105425809D01*
X157162000Y-105330571D01*
X157209619Y-105282952D01*
X157304857Y-105235333D01*
X157400095Y-105235333D01*
X157542952Y-105282952D01*
X158114380Y-105854380D01*
X158114380Y-105235333D01*
G04 #@! TO.C,J3*
X126888380Y-113855333D02*
X127602666Y-113855333D01*
X127745523Y-113902952D01*
X127840761Y-113998190D01*
X127888380Y-114141047D01*
X127888380Y-114236285D01*
X126888380Y-113474380D02*
X126888380Y-112855333D01*
X127269333Y-113188666D01*
X127269333Y-113045809D01*
X127316952Y-112950571D01*
X127364571Y-112902952D01*
X127459809Y-112855333D01*
X127697904Y-112855333D01*
X127793142Y-112902952D01*
X127840761Y-112950571D01*
X127888380Y-113045809D01*
X127888380Y-113331523D01*
X127840761Y-113426761D01*
X127793142Y-113474380D01*
G04 #@! TO.C,J4*
X126888380Y-104711333D02*
X127602666Y-104711333D01*
X127745523Y-104758952D01*
X127840761Y-104854190D01*
X127888380Y-104997047D01*
X127888380Y-105092285D01*
X127221714Y-103806571D02*
X127888380Y-103806571D01*
X126840761Y-104044666D02*
X127555047Y-104282761D01*
X127555047Y-103663714D01*
G04 #@! TO.C,R1*
X165129052Y-108624666D02*
X164652862Y-108958000D01*
X165129052Y-109196095D02*
X164129052Y-109196095D01*
X164129052Y-108815142D01*
X164176672Y-108719904D01*
X164224291Y-108672285D01*
X164319529Y-108624666D01*
X164462386Y-108624666D01*
X164557624Y-108672285D01*
X164605243Y-108719904D01*
X164652862Y-108815142D01*
X164652862Y-109196095D01*
X165129052Y-107672285D02*
X165129052Y-108243714D01*
X165129052Y-107958000D02*
X164129052Y-107958000D01*
X164271910Y-108053238D01*
X164367148Y-108148476D01*
X164414767Y-108243714D01*
G04 #@! TO.C,R2*
X161319052Y-108624666D02*
X160842862Y-108958000D01*
X161319052Y-109196095D02*
X160319052Y-109196095D01*
X160319052Y-108815142D01*
X160366672Y-108719904D01*
X160414291Y-108672285D01*
X160509529Y-108624666D01*
X160652386Y-108624666D01*
X160747624Y-108672285D01*
X160795243Y-108719904D01*
X160842862Y-108815142D01*
X160842862Y-109196095D01*
X160414291Y-108243714D02*
X160366672Y-108196095D01*
X160319052Y-108100857D01*
X160319052Y-107862761D01*
X160366672Y-107767523D01*
X160414291Y-107719904D01*
X160509529Y-107672285D01*
X160604767Y-107672285D01*
X160747624Y-107719904D01*
X161319052Y-108291333D01*
X161319052Y-107672285D01*
G04 #@! TO.C,R3*
X133691333Y-109188380D02*
X133358000Y-108712190D01*
X133119904Y-109188380D02*
X133119904Y-108188380D01*
X133500857Y-108188380D01*
X133596095Y-108236000D01*
X133643714Y-108283619D01*
X133691333Y-108378857D01*
X133691333Y-108521714D01*
X133643714Y-108616952D01*
X133596095Y-108664571D01*
X133500857Y-108712190D01*
X133119904Y-108712190D01*
X134024666Y-108188380D02*
X134643714Y-108188380D01*
X134310380Y-108569333D01*
X134453238Y-108569333D01*
X134548476Y-108616952D01*
X134596095Y-108664571D01*
X134643714Y-108759809D01*
X134643714Y-108997904D01*
X134596095Y-109093142D01*
X134548476Y-109140761D01*
X134453238Y-109188380D01*
X134167523Y-109188380D01*
X134072285Y-109140761D01*
X134024666Y-109093142D01*
G04 #@! TO.C,U1*
X133096095Y-107044380D02*
X133096095Y-107853904D01*
X133143714Y-107949142D01*
X133191333Y-107996761D01*
X133286571Y-108044380D01*
X133477047Y-108044380D01*
X133572285Y-107996761D01*
X133619904Y-107949142D01*
X133667523Y-107853904D01*
X133667523Y-107044380D01*
X134667523Y-108044380D02*
X134096095Y-108044380D01*
X134381809Y-108044380D02*
X134381809Y-107044380D01*
X134286571Y-107187238D01*
X134191333Y-107282476D01*
X134096095Y-107330095D01*
G04 #@! TO.C,J1*
X147236380Y-101425333D02*
X147950666Y-101425333D01*
X148093523Y-101472952D01*
X148188761Y-101568190D01*
X148236380Y-101711047D01*
X148236380Y-101806285D01*
X148236380Y-100425333D02*
X148236380Y-100996761D01*
X148236380Y-100711047D02*
X147236380Y-100711047D01*
X147379238Y-100806285D01*
X147474476Y-100901523D01*
X147522095Y-100996761D01*
G04 #@! TO.C,MH1*
X120840666Y-100274380D02*
X120840666Y-99274380D01*
X121174000Y-99988666D01*
X121507333Y-99274380D01*
X121507333Y-100274380D01*
X121983523Y-100274380D02*
X121983523Y-99274380D01*
X121983523Y-99750571D02*
X122554952Y-99750571D01*
X122554952Y-100274380D02*
X122554952Y-99274380D01*
X123554952Y-100274380D02*
X122983523Y-100274380D01*
X123269238Y-100274380D02*
X123269238Y-99274380D01*
X123174000Y-99417238D01*
X123078761Y-99512476D01*
X122983523Y-99560095D01*
G04 #@! TO.C,MH2*
X117792666Y-117186380D02*
X117792666Y-116186380D01*
X118126000Y-116900666D01*
X118459333Y-116186380D01*
X118459333Y-117186380D01*
X118935523Y-117186380D02*
X118935523Y-116186380D01*
X118935523Y-116662571D02*
X119506952Y-116662571D01*
X119506952Y-117186380D02*
X119506952Y-116186380D01*
X119935523Y-116281619D02*
X119983142Y-116234000D01*
X120078380Y-116186380D01*
X120316476Y-116186380D01*
X120411714Y-116234000D01*
X120459333Y-116281619D01*
X120506952Y-116376857D01*
X120506952Y-116472095D01*
X120459333Y-116614952D01*
X119887904Y-117186380D01*
X120506952Y-117186380D01*
G04 #@! TO.C,MH3*
X161480666Y-117186380D02*
X161480666Y-116186380D01*
X161814000Y-116900666D01*
X162147333Y-116186380D01*
X162147333Y-117186380D01*
X162623523Y-117186380D02*
X162623523Y-116186380D01*
X162623523Y-116662571D02*
X163194952Y-116662571D01*
X163194952Y-117186380D02*
X163194952Y-116186380D01*
X163575904Y-116186380D02*
X164194952Y-116186380D01*
X163861619Y-116567333D01*
X164004476Y-116567333D01*
X164099714Y-116614952D01*
X164147333Y-116662571D01*
X164194952Y-116757809D01*
X164194952Y-116995904D01*
X164147333Y-117091142D01*
X164099714Y-117138761D01*
X164004476Y-117186380D01*
X163718761Y-117186380D01*
X163623523Y-117138761D01*
X163575904Y-117091142D01*
G04 #@! TO.C,MH4*
X158686666Y-100274380D02*
X158686666Y-99274380D01*
X159020000Y-99988666D01*
X159353333Y-99274380D01*
X159353333Y-100274380D01*
X159829523Y-100274380D02*
X159829523Y-99274380D01*
X159829523Y-99750571D02*
X160400952Y-99750571D01*
X160400952Y-100274380D02*
X160400952Y-99274380D01*
X161305714Y-99607714D02*
X161305714Y-100274380D01*
X161067619Y-99226761D02*
X160829523Y-99941047D01*
X161448571Y-99941047D01*
G04 #@! TD*
M02*
