M48
; DRILL file {KiCad 5.1.5} date Mi 29 Jan 2020 11:08:57 CET
; FORMAT={-:-/ absolute / inch / decimal}
; #@! TF.CreationDate,2020-01-29T11:08:57+01:00
; #@! TF.GenerationSoftware,Kicad,Pcbnew,5.1.5
FMAT,2
INCH
T1C0.0315
T2C0.0394
T3C0.0400
T4C0.0472
T5C0.0866
%
G90
G05
T1
X5.42Y-4.43
X5.42Y-4.53
X5.12Y-4.07
X5.2184Y-4.07
X5.32Y-4.07
X5.4184Y-4.07
X5.12Y-4.19
X5.42Y-4.19
X6.2424Y-4.12
X6.2424Y-4.42
X5.12Y-4.33
X5.12Y-4.43
X5.12Y-4.53
X5.12Y-4.63
X5.42Y-4.33
X5.42Y-4.63
X6.3924Y-4.12
X6.3924Y-4.42
T2
X5.91Y-3.98
X6.01Y-3.98
X6.11Y-3.98
T3
X5.64Y-4.28
X5.64Y-4.38
X5.64Y-4.48
X5.74Y-4.28
X5.74Y-4.38
X5.74Y-4.48
T4
X6.03Y-4.15
X6.03Y-4.25
X6.03Y-4.35
X6.03Y-4.45
X6.03Y-4.55
X4.9Y-4.05
X4.9Y-4.15
X4.9Y-4.25
X4.9Y-4.43
X4.9Y-4.53
X4.9Y-4.63
T5
X4.69Y-3.99
X4.69Y-4.71
X6.41Y-4.71
X6.41Y-3.99
T0
M30
