G04 #@! TF.GenerationSoftware,KiCad,Pcbnew,5.1.5*
G04 #@! TF.CreationDate,2020-01-29T11:09:02+01:00*
G04 #@! TF.ProjectId,TinyADC,54696e79-4144-4432-9e6b-696361645f70,rev?*
G04 #@! TF.SameCoordinates,Original*
G04 #@! TF.FileFunction,Copper,L2,Bot*
G04 #@! TF.FilePolarity,Positive*
%FSLAX46Y46*%
G04 Gerber Fmt 4.6, Leading zero omitted, Abs format (unit mm)*
G04 Created by KiCad (PCBNEW 5.1.5) date 2020-01-29 11:09:02*
%MOMM*%
%LPD*%
G04 APERTURE LIST*
%ADD10O,2.600000X2.000000*%
%ADD11R,2.600000X2.000000*%
%ADD12R,1.727200X1.727200*%
%ADD13O,1.727200X1.727200*%
%ADD14C,1.600000*%
%ADD15O,1.600000X1.600000*%
%ADD16R,1.600000X1.600000*%
%ADD17R,1.700000X1.700000*%
%ADD18O,1.700000X1.700000*%
%ADD19C,0.254000*%
G04 APERTURE END LIST*
D10*
X124460000Y-107950000D03*
X124460000Y-105410000D03*
D11*
X124460000Y-102870000D03*
D12*
X143256000Y-108712000D03*
D13*
X145796000Y-108712000D03*
X143256000Y-111252000D03*
X145796000Y-111252000D03*
X143256000Y-113792000D03*
X145796000Y-113792000D03*
D14*
X137628000Y-103378000D03*
X135128000Y-103378000D03*
X132548000Y-103378000D03*
X130048000Y-103378000D03*
D11*
X153162000Y-105410000D03*
D10*
X153162000Y-107950000D03*
X153162000Y-110490000D03*
X153162000Y-113030000D03*
X153162000Y-115570000D03*
D11*
X124460000Y-112522000D03*
D10*
X124460000Y-115062000D03*
X124460000Y-117602000D03*
D15*
X162366672Y-112268000D03*
D14*
X162366672Y-104648000D03*
X158556672Y-104648000D03*
D15*
X158556672Y-112268000D03*
D14*
X137668000Y-106426000D03*
D15*
X130048000Y-106426000D03*
D16*
X130048000Y-109982000D03*
D15*
X137668000Y-117602000D03*
X130048000Y-112522000D03*
X137668000Y-115062000D03*
X130048000Y-115062000D03*
X137668000Y-112522000D03*
X130048000Y-117602000D03*
X137668000Y-109982000D03*
D17*
X150114000Y-101092000D03*
D18*
X152654000Y-101092000D03*
X155194000Y-101092000D03*
D19*
G36*
X164973000Y-121793000D02*
G01*
X116967000Y-121793000D01*
X116967000Y-119463117D01*
X117391000Y-119463117D01*
X117391000Y-119804883D01*
X117457675Y-120140081D01*
X117588463Y-120455831D01*
X117778337Y-120739998D01*
X118020002Y-120981663D01*
X118304169Y-121171537D01*
X118619919Y-121302325D01*
X118955117Y-121369000D01*
X119296883Y-121369000D01*
X119632081Y-121302325D01*
X119947831Y-121171537D01*
X120231998Y-120981663D01*
X120473663Y-120739998D01*
X120663537Y-120455831D01*
X120794325Y-120140081D01*
X120861000Y-119804883D01*
X120861000Y-119463117D01*
X161079000Y-119463117D01*
X161079000Y-119804883D01*
X161145675Y-120140081D01*
X161276463Y-120455831D01*
X161466337Y-120739998D01*
X161708002Y-120981663D01*
X161992169Y-121171537D01*
X162307919Y-121302325D01*
X162643117Y-121369000D01*
X162984883Y-121369000D01*
X163320081Y-121302325D01*
X163635831Y-121171537D01*
X163919998Y-120981663D01*
X164161663Y-120739998D01*
X164351537Y-120455831D01*
X164482325Y-120140081D01*
X164549000Y-119804883D01*
X164549000Y-119463117D01*
X164482325Y-119127919D01*
X164351537Y-118812169D01*
X164161663Y-118528002D01*
X163919998Y-118286337D01*
X163635831Y-118096463D01*
X163320081Y-117965675D01*
X162984883Y-117899000D01*
X162643117Y-117899000D01*
X162307919Y-117965675D01*
X161992169Y-118096463D01*
X161708002Y-118286337D01*
X161466337Y-118528002D01*
X161276463Y-118812169D01*
X161145675Y-119127919D01*
X161079000Y-119463117D01*
X120861000Y-119463117D01*
X120794325Y-119127919D01*
X120663537Y-118812169D01*
X120473663Y-118528002D01*
X120231998Y-118286337D01*
X119947831Y-118096463D01*
X119672541Y-117982434D01*
X122569876Y-117982434D01*
X122600856Y-118110355D01*
X122729990Y-118404761D01*
X122914078Y-118668317D01*
X123146046Y-118890895D01*
X123416980Y-119063942D01*
X123716468Y-119180807D01*
X124033000Y-119237000D01*
X124333000Y-119237000D01*
X124333000Y-117729000D01*
X124587000Y-117729000D01*
X124587000Y-119237000D01*
X124887000Y-119237000D01*
X125203532Y-119180807D01*
X125503020Y-119063942D01*
X125773954Y-118890895D01*
X126005922Y-118668317D01*
X126190010Y-118404761D01*
X126319144Y-118110355D01*
X126350124Y-117982434D01*
X126335340Y-117951039D01*
X128656096Y-117951039D01*
X128696754Y-118085087D01*
X128816963Y-118339420D01*
X128984481Y-118565414D01*
X129192869Y-118754385D01*
X129434119Y-118899070D01*
X129698960Y-118993909D01*
X129921000Y-118872624D01*
X129921000Y-117729000D01*
X130175000Y-117729000D01*
X130175000Y-118872624D01*
X130397040Y-118993909D01*
X130661881Y-118899070D01*
X130903131Y-118754385D01*
X131111519Y-118565414D01*
X131279037Y-118339420D01*
X131399246Y-118085087D01*
X131439904Y-117951039D01*
X131317915Y-117729000D01*
X130175000Y-117729000D01*
X129921000Y-117729000D01*
X128778085Y-117729000D01*
X128656096Y-117951039D01*
X126335340Y-117951039D01*
X126230777Y-117729000D01*
X124587000Y-117729000D01*
X124333000Y-117729000D01*
X122689223Y-117729000D01*
X122569876Y-117982434D01*
X119672541Y-117982434D01*
X119632081Y-117965675D01*
X119296883Y-117899000D01*
X118955117Y-117899000D01*
X118619919Y-117965675D01*
X118304169Y-118096463D01*
X118020002Y-118286337D01*
X117778337Y-118528002D01*
X117588463Y-118812169D01*
X117457675Y-119127919D01*
X117391000Y-119463117D01*
X116967000Y-119463117D01*
X116967000Y-115062000D01*
X122517089Y-115062000D01*
X122548657Y-115382516D01*
X122642148Y-115690715D01*
X122793969Y-115974752D01*
X122998286Y-116223714D01*
X123128142Y-116330284D01*
X122914078Y-116535683D01*
X122729990Y-116799239D01*
X122600856Y-117093645D01*
X122569876Y-117221566D01*
X122689223Y-117475000D01*
X124333000Y-117475000D01*
X124333000Y-117455000D01*
X124587000Y-117455000D01*
X124587000Y-117475000D01*
X126230777Y-117475000D01*
X126350124Y-117221566D01*
X126319144Y-117093645D01*
X126190010Y-116799239D01*
X126005922Y-116535683D01*
X125791858Y-116330284D01*
X125921714Y-116223714D01*
X126126031Y-115974752D01*
X126277852Y-115690715D01*
X126371343Y-115382516D01*
X126402911Y-115062000D01*
X126371343Y-114741484D01*
X126277852Y-114433285D01*
X126126031Y-114149248D01*
X126067345Y-114077739D01*
X126114494Y-114052537D01*
X126211185Y-113973185D01*
X126290537Y-113876494D01*
X126349502Y-113766180D01*
X126385812Y-113646482D01*
X126398072Y-113522000D01*
X126398072Y-111522000D01*
X126385812Y-111397518D01*
X126349502Y-111277820D01*
X126290537Y-111167506D01*
X126211185Y-111070815D01*
X126114494Y-110991463D01*
X126004180Y-110932498D01*
X125884482Y-110896188D01*
X125760000Y-110883928D01*
X123160000Y-110883928D01*
X123035518Y-110896188D01*
X122915820Y-110932498D01*
X122805506Y-110991463D01*
X122708815Y-111070815D01*
X122629463Y-111167506D01*
X122570498Y-111277820D01*
X122534188Y-111397518D01*
X122521928Y-111522000D01*
X122521928Y-113522000D01*
X122534188Y-113646482D01*
X122570498Y-113766180D01*
X122629463Y-113876494D01*
X122708815Y-113973185D01*
X122805506Y-114052537D01*
X122852655Y-114077739D01*
X122793969Y-114149248D01*
X122642148Y-114433285D01*
X122548657Y-114741484D01*
X122517089Y-115062000D01*
X116967000Y-115062000D01*
X116967000Y-108330434D01*
X122569876Y-108330434D01*
X122600856Y-108458355D01*
X122729990Y-108752761D01*
X122914078Y-109016317D01*
X123146046Y-109238895D01*
X123416980Y-109411942D01*
X123716468Y-109528807D01*
X124033000Y-109585000D01*
X124333000Y-109585000D01*
X124333000Y-108077000D01*
X124587000Y-108077000D01*
X124587000Y-109585000D01*
X124887000Y-109585000D01*
X125203532Y-109528807D01*
X125503020Y-109411942D01*
X125773954Y-109238895D01*
X125833249Y-109182000D01*
X128609928Y-109182000D01*
X128609928Y-110782000D01*
X128622188Y-110906482D01*
X128658498Y-111026180D01*
X128717463Y-111136494D01*
X128796815Y-111233185D01*
X128893506Y-111312537D01*
X129003820Y-111371502D01*
X129123518Y-111407812D01*
X129131961Y-111408643D01*
X128933363Y-111607241D01*
X128776320Y-111842273D01*
X128668147Y-112103426D01*
X128613000Y-112380665D01*
X128613000Y-112663335D01*
X128668147Y-112940574D01*
X128776320Y-113201727D01*
X128933363Y-113436759D01*
X129133241Y-113636637D01*
X129365759Y-113792000D01*
X129133241Y-113947363D01*
X128933363Y-114147241D01*
X128776320Y-114382273D01*
X128668147Y-114643426D01*
X128613000Y-114920665D01*
X128613000Y-115203335D01*
X128668147Y-115480574D01*
X128776320Y-115741727D01*
X128933363Y-115976759D01*
X129133241Y-116176637D01*
X129368273Y-116333680D01*
X129378865Y-116338067D01*
X129192869Y-116449615D01*
X128984481Y-116638586D01*
X128816963Y-116864580D01*
X128696754Y-117118913D01*
X128656096Y-117252961D01*
X128778085Y-117475000D01*
X129921000Y-117475000D01*
X129921000Y-117455000D01*
X130175000Y-117455000D01*
X130175000Y-117475000D01*
X131317915Y-117475000D01*
X131439904Y-117252961D01*
X131399246Y-117118913D01*
X131279037Y-116864580D01*
X131111519Y-116638586D01*
X130903131Y-116449615D01*
X130717135Y-116338067D01*
X130727727Y-116333680D01*
X130962759Y-116176637D01*
X131162637Y-115976759D01*
X131319680Y-115741727D01*
X131427853Y-115480574D01*
X131483000Y-115203335D01*
X131483000Y-114920665D01*
X131427853Y-114643426D01*
X131319680Y-114382273D01*
X131162637Y-114147241D01*
X130962759Y-113947363D01*
X130730241Y-113792000D01*
X130962759Y-113636637D01*
X131162637Y-113436759D01*
X131319680Y-113201727D01*
X131427853Y-112940574D01*
X131483000Y-112663335D01*
X131483000Y-112380665D01*
X131427853Y-112103426D01*
X131319680Y-111842273D01*
X131162637Y-111607241D01*
X130964039Y-111408643D01*
X130972482Y-111407812D01*
X131092180Y-111371502D01*
X131202494Y-111312537D01*
X131299185Y-111233185D01*
X131378537Y-111136494D01*
X131437502Y-111026180D01*
X131473812Y-110906482D01*
X131486072Y-110782000D01*
X131486072Y-109840665D01*
X136233000Y-109840665D01*
X136233000Y-110123335D01*
X136288147Y-110400574D01*
X136396320Y-110661727D01*
X136553363Y-110896759D01*
X136753241Y-111096637D01*
X136985759Y-111252000D01*
X136753241Y-111407363D01*
X136553363Y-111607241D01*
X136396320Y-111842273D01*
X136288147Y-112103426D01*
X136233000Y-112380665D01*
X136233000Y-112663335D01*
X136288147Y-112940574D01*
X136396320Y-113201727D01*
X136553363Y-113436759D01*
X136753241Y-113636637D01*
X136985759Y-113792000D01*
X136753241Y-113947363D01*
X136553363Y-114147241D01*
X136396320Y-114382273D01*
X136288147Y-114643426D01*
X136233000Y-114920665D01*
X136233000Y-115203335D01*
X136288147Y-115480574D01*
X136396320Y-115741727D01*
X136553363Y-115976759D01*
X136753241Y-116176637D01*
X136985759Y-116332000D01*
X136753241Y-116487363D01*
X136553363Y-116687241D01*
X136396320Y-116922273D01*
X136288147Y-117183426D01*
X136233000Y-117460665D01*
X136233000Y-117743335D01*
X136288147Y-118020574D01*
X136396320Y-118281727D01*
X136553363Y-118516759D01*
X136753241Y-118716637D01*
X136988273Y-118873680D01*
X137249426Y-118981853D01*
X137526665Y-119037000D01*
X137809335Y-119037000D01*
X138086574Y-118981853D01*
X138347727Y-118873680D01*
X138582759Y-118716637D01*
X138782637Y-118516759D01*
X138939680Y-118281727D01*
X139047853Y-118020574D01*
X139103000Y-117743335D01*
X139103000Y-117460665D01*
X139047853Y-117183426D01*
X138939680Y-116922273D01*
X138782637Y-116687241D01*
X138582759Y-116487363D01*
X138350241Y-116332000D01*
X138582759Y-116176637D01*
X138782637Y-115976759D01*
X138800226Y-115950434D01*
X151271876Y-115950434D01*
X151302856Y-116078355D01*
X151431990Y-116372761D01*
X151616078Y-116636317D01*
X151848046Y-116858895D01*
X152118980Y-117031942D01*
X152418468Y-117148807D01*
X152735000Y-117205000D01*
X153035000Y-117205000D01*
X153035000Y-115697000D01*
X153289000Y-115697000D01*
X153289000Y-117205000D01*
X153589000Y-117205000D01*
X153905532Y-117148807D01*
X154205020Y-117031942D01*
X154475954Y-116858895D01*
X154707922Y-116636317D01*
X154892010Y-116372761D01*
X155021144Y-116078355D01*
X155052124Y-115950434D01*
X154932777Y-115697000D01*
X153289000Y-115697000D01*
X153035000Y-115697000D01*
X151391223Y-115697000D01*
X151271876Y-115950434D01*
X138800226Y-115950434D01*
X138939680Y-115741727D01*
X139047853Y-115480574D01*
X139103000Y-115203335D01*
X139103000Y-114920665D01*
X139047853Y-114643426D01*
X138939680Y-114382273D01*
X138782637Y-114147241D01*
X138582759Y-113947363D01*
X138350241Y-113792000D01*
X138582759Y-113636637D01*
X138782637Y-113436759D01*
X138939680Y-113201727D01*
X139047853Y-112940574D01*
X139103000Y-112663335D01*
X139103000Y-112380665D01*
X139047853Y-112103426D01*
X138939680Y-111842273D01*
X138782637Y-111607241D01*
X138582759Y-111407363D01*
X138350241Y-111252000D01*
X138582759Y-111096637D01*
X138782637Y-110896759D01*
X138939680Y-110661727D01*
X139047853Y-110400574D01*
X139103000Y-110123335D01*
X139103000Y-109840665D01*
X139047853Y-109563426D01*
X138939680Y-109302273D01*
X138782637Y-109067241D01*
X138582759Y-108867363D01*
X138347727Y-108710320D01*
X138086574Y-108602147D01*
X137809335Y-108547000D01*
X137526665Y-108547000D01*
X137249426Y-108602147D01*
X136988273Y-108710320D01*
X136753241Y-108867363D01*
X136553363Y-109067241D01*
X136396320Y-109302273D01*
X136288147Y-109563426D01*
X136233000Y-109840665D01*
X131486072Y-109840665D01*
X131486072Y-109182000D01*
X131473812Y-109057518D01*
X131437502Y-108937820D01*
X131378537Y-108827506D01*
X131299185Y-108730815D01*
X131202494Y-108651463D01*
X131092180Y-108592498D01*
X130972482Y-108556188D01*
X130848000Y-108543928D01*
X129248000Y-108543928D01*
X129123518Y-108556188D01*
X129003820Y-108592498D01*
X128893506Y-108651463D01*
X128796815Y-108730815D01*
X128717463Y-108827506D01*
X128658498Y-108937820D01*
X128622188Y-109057518D01*
X128609928Y-109182000D01*
X125833249Y-109182000D01*
X126005922Y-109016317D01*
X126190010Y-108752761D01*
X126319144Y-108458355D01*
X126350124Y-108330434D01*
X126230777Y-108077000D01*
X124587000Y-108077000D01*
X124333000Y-108077000D01*
X122689223Y-108077000D01*
X122569876Y-108330434D01*
X116967000Y-108330434D01*
X116967000Y-105410000D01*
X122517089Y-105410000D01*
X122548657Y-105730516D01*
X122642148Y-106038715D01*
X122793969Y-106322752D01*
X122998286Y-106571714D01*
X123128142Y-106678284D01*
X122914078Y-106883683D01*
X122729990Y-107147239D01*
X122600856Y-107441645D01*
X122569876Y-107569566D01*
X122689223Y-107823000D01*
X124333000Y-107823000D01*
X124333000Y-107803000D01*
X124587000Y-107803000D01*
X124587000Y-107823000D01*
X126230777Y-107823000D01*
X126350124Y-107569566D01*
X126319144Y-107441645D01*
X126190010Y-107147239D01*
X126005922Y-106883683D01*
X125791858Y-106678284D01*
X125921714Y-106571714D01*
X126126031Y-106322752D01*
X126146388Y-106284665D01*
X128613000Y-106284665D01*
X128613000Y-106567335D01*
X128668147Y-106844574D01*
X128776320Y-107105727D01*
X128933363Y-107340759D01*
X129133241Y-107540637D01*
X129368273Y-107697680D01*
X129629426Y-107805853D01*
X129906665Y-107861000D01*
X130189335Y-107861000D01*
X130466574Y-107805853D01*
X130727727Y-107697680D01*
X130962759Y-107540637D01*
X131162637Y-107340759D01*
X131319680Y-107105727D01*
X131427853Y-106844574D01*
X131483000Y-106567335D01*
X131483000Y-106284665D01*
X136233000Y-106284665D01*
X136233000Y-106567335D01*
X136288147Y-106844574D01*
X136396320Y-107105727D01*
X136553363Y-107340759D01*
X136753241Y-107540637D01*
X136988273Y-107697680D01*
X137249426Y-107805853D01*
X137526665Y-107861000D01*
X137809335Y-107861000D01*
X137872678Y-107848400D01*
X141754328Y-107848400D01*
X141754328Y-109575600D01*
X141766588Y-109700082D01*
X141802898Y-109819780D01*
X141861863Y-109930094D01*
X141941215Y-110026785D01*
X142037906Y-110106137D01*
X142148220Y-110165102D01*
X142206023Y-110182636D01*
X142091961Y-110296698D01*
X141927958Y-110542147D01*
X141814990Y-110814875D01*
X141757400Y-111104401D01*
X141757400Y-111399599D01*
X141814990Y-111689125D01*
X141927958Y-111961853D01*
X142091961Y-112207302D01*
X142300698Y-112416039D01*
X142459281Y-112522000D01*
X142300698Y-112627961D01*
X142091961Y-112836698D01*
X141927958Y-113082147D01*
X141814990Y-113354875D01*
X141757400Y-113644401D01*
X141757400Y-113939599D01*
X141814990Y-114229125D01*
X141927958Y-114501853D01*
X142091961Y-114747302D01*
X142300698Y-114956039D01*
X142546147Y-115120042D01*
X142818875Y-115233010D01*
X143108401Y-115290600D01*
X143403599Y-115290600D01*
X143693125Y-115233010D01*
X143965853Y-115120042D01*
X144211302Y-114956039D01*
X144420039Y-114747302D01*
X144530559Y-114581897D01*
X144589183Y-114680488D01*
X144785707Y-114898854D01*
X145021056Y-115074684D01*
X145286186Y-115201222D01*
X145436974Y-115246958D01*
X145669000Y-115125817D01*
X145669000Y-113919000D01*
X145923000Y-113919000D01*
X145923000Y-115125817D01*
X146155026Y-115246958D01*
X146305814Y-115201222D01*
X146570944Y-115074684D01*
X146806293Y-114898854D01*
X147002817Y-114680488D01*
X147152964Y-114427978D01*
X147250963Y-114151027D01*
X147130464Y-113919000D01*
X145923000Y-113919000D01*
X145669000Y-113919000D01*
X145649000Y-113919000D01*
X145649000Y-113665000D01*
X145669000Y-113665000D01*
X145669000Y-113645000D01*
X145923000Y-113645000D01*
X145923000Y-113665000D01*
X147130464Y-113665000D01*
X147250963Y-113432973D01*
X147152964Y-113156022D01*
X147002817Y-112903512D01*
X146806293Y-112685146D01*
X146590187Y-112523692D01*
X146751302Y-112416039D01*
X146960039Y-112207302D01*
X147124042Y-111961853D01*
X147237010Y-111689125D01*
X147294600Y-111399599D01*
X147294600Y-111104401D01*
X147237010Y-110814875D01*
X147124042Y-110542147D01*
X146960039Y-110296698D01*
X146751302Y-110087961D01*
X146592719Y-109982000D01*
X146751302Y-109876039D01*
X146960039Y-109667302D01*
X147124042Y-109421853D01*
X147237010Y-109149125D01*
X147294600Y-108859599D01*
X147294600Y-108564401D01*
X147237010Y-108274875D01*
X147124042Y-108002147D01*
X147089199Y-107950000D01*
X151219089Y-107950000D01*
X151250657Y-108270516D01*
X151344148Y-108578715D01*
X151495969Y-108862752D01*
X151700286Y-109111714D01*
X151832233Y-109220000D01*
X151700286Y-109328286D01*
X151495969Y-109577248D01*
X151344148Y-109861285D01*
X151250657Y-110169484D01*
X151219089Y-110490000D01*
X151250657Y-110810516D01*
X151344148Y-111118715D01*
X151495969Y-111402752D01*
X151700286Y-111651714D01*
X151832233Y-111760000D01*
X151700286Y-111868286D01*
X151495969Y-112117248D01*
X151344148Y-112401285D01*
X151250657Y-112709484D01*
X151219089Y-113030000D01*
X151250657Y-113350516D01*
X151344148Y-113658715D01*
X151495969Y-113942752D01*
X151700286Y-114191714D01*
X151830142Y-114298284D01*
X151616078Y-114503683D01*
X151431990Y-114767239D01*
X151302856Y-115061645D01*
X151271876Y-115189566D01*
X151391223Y-115443000D01*
X153035000Y-115443000D01*
X153035000Y-115423000D01*
X153289000Y-115423000D01*
X153289000Y-115443000D01*
X154932777Y-115443000D01*
X155052124Y-115189566D01*
X155021144Y-115061645D01*
X154892010Y-114767239D01*
X154707922Y-114503683D01*
X154493858Y-114298284D01*
X154623714Y-114191714D01*
X154828031Y-113942752D01*
X154979852Y-113658715D01*
X155073343Y-113350516D01*
X155104911Y-113030000D01*
X155073343Y-112709484D01*
X154979852Y-112401285D01*
X154833065Y-112126665D01*
X157121672Y-112126665D01*
X157121672Y-112409335D01*
X157176819Y-112686574D01*
X157284992Y-112947727D01*
X157442035Y-113182759D01*
X157641913Y-113382637D01*
X157876945Y-113539680D01*
X158138098Y-113647853D01*
X158415337Y-113703000D01*
X158698007Y-113703000D01*
X158975246Y-113647853D01*
X159236399Y-113539680D01*
X159471431Y-113382637D01*
X159671309Y-113182759D01*
X159828352Y-112947727D01*
X159936525Y-112686574D01*
X159991672Y-112409335D01*
X159991672Y-112126665D01*
X160931672Y-112126665D01*
X160931672Y-112409335D01*
X160986819Y-112686574D01*
X161094992Y-112947727D01*
X161252035Y-113182759D01*
X161451913Y-113382637D01*
X161686945Y-113539680D01*
X161948098Y-113647853D01*
X162225337Y-113703000D01*
X162508007Y-113703000D01*
X162785246Y-113647853D01*
X163046399Y-113539680D01*
X163281431Y-113382637D01*
X163481309Y-113182759D01*
X163638352Y-112947727D01*
X163746525Y-112686574D01*
X163801672Y-112409335D01*
X163801672Y-112126665D01*
X163746525Y-111849426D01*
X163638352Y-111588273D01*
X163481309Y-111353241D01*
X163281431Y-111153363D01*
X163046399Y-110996320D01*
X162785246Y-110888147D01*
X162508007Y-110833000D01*
X162225337Y-110833000D01*
X161948098Y-110888147D01*
X161686945Y-110996320D01*
X161451913Y-111153363D01*
X161252035Y-111353241D01*
X161094992Y-111588273D01*
X160986819Y-111849426D01*
X160931672Y-112126665D01*
X159991672Y-112126665D01*
X159936525Y-111849426D01*
X159828352Y-111588273D01*
X159671309Y-111353241D01*
X159471431Y-111153363D01*
X159236399Y-110996320D01*
X158975246Y-110888147D01*
X158698007Y-110833000D01*
X158415337Y-110833000D01*
X158138098Y-110888147D01*
X157876945Y-110996320D01*
X157641913Y-111153363D01*
X157442035Y-111353241D01*
X157284992Y-111588273D01*
X157176819Y-111849426D01*
X157121672Y-112126665D01*
X154833065Y-112126665D01*
X154828031Y-112117248D01*
X154623714Y-111868286D01*
X154491767Y-111760000D01*
X154623714Y-111651714D01*
X154828031Y-111402752D01*
X154979852Y-111118715D01*
X155073343Y-110810516D01*
X155104911Y-110490000D01*
X155073343Y-110169484D01*
X154979852Y-109861285D01*
X154828031Y-109577248D01*
X154623714Y-109328286D01*
X154491767Y-109220000D01*
X154623714Y-109111714D01*
X154828031Y-108862752D01*
X154979852Y-108578715D01*
X155073343Y-108270516D01*
X155104911Y-107950000D01*
X155073343Y-107629484D01*
X154979852Y-107321285D01*
X154828031Y-107037248D01*
X154769345Y-106965739D01*
X154816494Y-106940537D01*
X154913185Y-106861185D01*
X154992537Y-106764494D01*
X155051502Y-106654180D01*
X155087812Y-106534482D01*
X155100072Y-106410000D01*
X155100072Y-104506665D01*
X157121672Y-104506665D01*
X157121672Y-104789335D01*
X157176819Y-105066574D01*
X157284992Y-105327727D01*
X157442035Y-105562759D01*
X157641913Y-105762637D01*
X157876945Y-105919680D01*
X158138098Y-106027853D01*
X158415337Y-106083000D01*
X158698007Y-106083000D01*
X158975246Y-106027853D01*
X159236399Y-105919680D01*
X159471431Y-105762637D01*
X159671309Y-105562759D01*
X159828352Y-105327727D01*
X159936525Y-105066574D01*
X159991672Y-104789335D01*
X159991672Y-104506665D01*
X160931672Y-104506665D01*
X160931672Y-104789335D01*
X160986819Y-105066574D01*
X161094992Y-105327727D01*
X161252035Y-105562759D01*
X161451913Y-105762637D01*
X161686945Y-105919680D01*
X161948098Y-106027853D01*
X162225337Y-106083000D01*
X162508007Y-106083000D01*
X162785246Y-106027853D01*
X163046399Y-105919680D01*
X163281431Y-105762637D01*
X163481309Y-105562759D01*
X163638352Y-105327727D01*
X163746525Y-105066574D01*
X163801672Y-104789335D01*
X163801672Y-104506665D01*
X163746525Y-104229426D01*
X163638352Y-103968273D01*
X163481309Y-103733241D01*
X163281431Y-103533363D01*
X163046399Y-103376320D01*
X162785246Y-103268147D01*
X162508007Y-103213000D01*
X162225337Y-103213000D01*
X161948098Y-103268147D01*
X161686945Y-103376320D01*
X161451913Y-103533363D01*
X161252035Y-103733241D01*
X161094992Y-103968273D01*
X160986819Y-104229426D01*
X160931672Y-104506665D01*
X159991672Y-104506665D01*
X159936525Y-104229426D01*
X159828352Y-103968273D01*
X159671309Y-103733241D01*
X159471431Y-103533363D01*
X159236399Y-103376320D01*
X158975246Y-103268147D01*
X158698007Y-103213000D01*
X158415337Y-103213000D01*
X158138098Y-103268147D01*
X157876945Y-103376320D01*
X157641913Y-103533363D01*
X157442035Y-103733241D01*
X157284992Y-103968273D01*
X157176819Y-104229426D01*
X157121672Y-104506665D01*
X155100072Y-104506665D01*
X155100072Y-104410000D01*
X155087812Y-104285518D01*
X155051502Y-104165820D01*
X154992537Y-104055506D01*
X154913185Y-103958815D01*
X154816494Y-103879463D01*
X154706180Y-103820498D01*
X154586482Y-103784188D01*
X154462000Y-103771928D01*
X151862000Y-103771928D01*
X151737518Y-103784188D01*
X151617820Y-103820498D01*
X151507506Y-103879463D01*
X151410815Y-103958815D01*
X151331463Y-104055506D01*
X151272498Y-104165820D01*
X151236188Y-104285518D01*
X151223928Y-104410000D01*
X151223928Y-106410000D01*
X151236188Y-106534482D01*
X151272498Y-106654180D01*
X151331463Y-106764494D01*
X151410815Y-106861185D01*
X151507506Y-106940537D01*
X151554655Y-106965739D01*
X151495969Y-107037248D01*
X151344148Y-107321285D01*
X151250657Y-107629484D01*
X151219089Y-107950000D01*
X147089199Y-107950000D01*
X146960039Y-107756698D01*
X146751302Y-107547961D01*
X146505853Y-107383958D01*
X146233125Y-107270990D01*
X145943599Y-107213400D01*
X145648401Y-107213400D01*
X145358875Y-107270990D01*
X145086147Y-107383958D01*
X144840698Y-107547961D01*
X144726636Y-107662023D01*
X144709102Y-107604220D01*
X144650137Y-107493906D01*
X144570785Y-107397215D01*
X144474094Y-107317863D01*
X144363780Y-107258898D01*
X144244082Y-107222588D01*
X144119600Y-107210328D01*
X142392400Y-107210328D01*
X142267918Y-107222588D01*
X142148220Y-107258898D01*
X142037906Y-107317863D01*
X141941215Y-107397215D01*
X141861863Y-107493906D01*
X141802898Y-107604220D01*
X141766588Y-107723918D01*
X141754328Y-107848400D01*
X137872678Y-107848400D01*
X138086574Y-107805853D01*
X138347727Y-107697680D01*
X138582759Y-107540637D01*
X138782637Y-107340759D01*
X138939680Y-107105727D01*
X139047853Y-106844574D01*
X139103000Y-106567335D01*
X139103000Y-106284665D01*
X139047853Y-106007426D01*
X138939680Y-105746273D01*
X138782637Y-105511241D01*
X138582759Y-105311363D01*
X138347727Y-105154320D01*
X138086574Y-105046147D01*
X137809335Y-104991000D01*
X137526665Y-104991000D01*
X137249426Y-105046147D01*
X136988273Y-105154320D01*
X136753241Y-105311363D01*
X136553363Y-105511241D01*
X136396320Y-105746273D01*
X136288147Y-106007426D01*
X136233000Y-106284665D01*
X131483000Y-106284665D01*
X131427853Y-106007426D01*
X131319680Y-105746273D01*
X131162637Y-105511241D01*
X130962759Y-105311363D01*
X130727727Y-105154320D01*
X130466574Y-105046147D01*
X130189335Y-104991000D01*
X129906665Y-104991000D01*
X129629426Y-105046147D01*
X129368273Y-105154320D01*
X129133241Y-105311363D01*
X128933363Y-105511241D01*
X128776320Y-105746273D01*
X128668147Y-106007426D01*
X128613000Y-106284665D01*
X126146388Y-106284665D01*
X126277852Y-106038715D01*
X126371343Y-105730516D01*
X126402911Y-105410000D01*
X126371343Y-105089484D01*
X126277852Y-104781285D01*
X126126031Y-104497248D01*
X126067345Y-104425739D01*
X126114494Y-104400537D01*
X126211185Y-104321185D01*
X126290537Y-104224494D01*
X126349502Y-104114180D01*
X126385812Y-103994482D01*
X126398072Y-103870000D01*
X126398072Y-103236665D01*
X128613000Y-103236665D01*
X128613000Y-103519335D01*
X128668147Y-103796574D01*
X128776320Y-104057727D01*
X128933363Y-104292759D01*
X129133241Y-104492637D01*
X129368273Y-104649680D01*
X129629426Y-104757853D01*
X129906665Y-104813000D01*
X130189335Y-104813000D01*
X130466574Y-104757853D01*
X130727727Y-104649680D01*
X130962759Y-104492637D01*
X131084694Y-104370702D01*
X131734903Y-104370702D01*
X131806486Y-104614671D01*
X132061996Y-104735571D01*
X132336184Y-104804300D01*
X132618512Y-104818217D01*
X132898130Y-104776787D01*
X133164292Y-104681603D01*
X133289514Y-104614671D01*
X133361097Y-104370702D01*
X134314903Y-104370702D01*
X134386486Y-104614671D01*
X134641996Y-104735571D01*
X134916184Y-104804300D01*
X135198512Y-104818217D01*
X135478130Y-104776787D01*
X135744292Y-104681603D01*
X135869514Y-104614671D01*
X135941097Y-104370702D01*
X135128000Y-103557605D01*
X134314903Y-104370702D01*
X133361097Y-104370702D01*
X132548000Y-103557605D01*
X131734903Y-104370702D01*
X131084694Y-104370702D01*
X131162637Y-104292759D01*
X131296692Y-104092131D01*
X131311329Y-104119514D01*
X131555298Y-104191097D01*
X132368395Y-103378000D01*
X132727605Y-103378000D01*
X133540702Y-104191097D01*
X133784671Y-104119514D01*
X133834754Y-104013669D01*
X133891329Y-104119514D01*
X134135298Y-104191097D01*
X134948395Y-103378000D01*
X135307605Y-103378000D01*
X136120702Y-104191097D01*
X136364671Y-104119514D01*
X136378324Y-104090659D01*
X136513363Y-104292759D01*
X136713241Y-104492637D01*
X136948273Y-104649680D01*
X137209426Y-104757853D01*
X137486665Y-104813000D01*
X137769335Y-104813000D01*
X138046574Y-104757853D01*
X138307727Y-104649680D01*
X138542759Y-104492637D01*
X138742637Y-104292759D01*
X138899680Y-104057727D01*
X139007853Y-103796574D01*
X139063000Y-103519335D01*
X139063000Y-103236665D01*
X139007853Y-102959426D01*
X138899680Y-102698273D01*
X138742637Y-102463241D01*
X138542759Y-102263363D01*
X138307727Y-102106320D01*
X138046574Y-101998147D01*
X137769335Y-101943000D01*
X137486665Y-101943000D01*
X137209426Y-101998147D01*
X136948273Y-102106320D01*
X136713241Y-102263363D01*
X136513363Y-102463241D01*
X136379308Y-102663869D01*
X136364671Y-102636486D01*
X136120702Y-102564903D01*
X135307605Y-103378000D01*
X134948395Y-103378000D01*
X134135298Y-102564903D01*
X133891329Y-102636486D01*
X133841246Y-102742331D01*
X133784671Y-102636486D01*
X133540702Y-102564903D01*
X132727605Y-103378000D01*
X132368395Y-103378000D01*
X131555298Y-102564903D01*
X131311329Y-102636486D01*
X131297676Y-102665341D01*
X131162637Y-102463241D01*
X131084694Y-102385298D01*
X131734903Y-102385298D01*
X132548000Y-103198395D01*
X133361097Y-102385298D01*
X134314903Y-102385298D01*
X135128000Y-103198395D01*
X135941097Y-102385298D01*
X135869514Y-102141329D01*
X135614004Y-102020429D01*
X135339816Y-101951700D01*
X135057488Y-101937783D01*
X134777870Y-101979213D01*
X134511708Y-102074397D01*
X134386486Y-102141329D01*
X134314903Y-102385298D01*
X133361097Y-102385298D01*
X133289514Y-102141329D01*
X133034004Y-102020429D01*
X132759816Y-101951700D01*
X132477488Y-101937783D01*
X132197870Y-101979213D01*
X131931708Y-102074397D01*
X131806486Y-102141329D01*
X131734903Y-102385298D01*
X131084694Y-102385298D01*
X130962759Y-102263363D01*
X130727727Y-102106320D01*
X130466574Y-101998147D01*
X130189335Y-101943000D01*
X129906665Y-101943000D01*
X129629426Y-101998147D01*
X129368273Y-102106320D01*
X129133241Y-102263363D01*
X128933363Y-102463241D01*
X128776320Y-102698273D01*
X128668147Y-102959426D01*
X128613000Y-103236665D01*
X126398072Y-103236665D01*
X126398072Y-101870000D01*
X126385812Y-101745518D01*
X126349502Y-101625820D01*
X126290537Y-101515506D01*
X126211185Y-101418815D01*
X126114494Y-101339463D01*
X126004180Y-101280498D01*
X125884482Y-101244188D01*
X125760000Y-101231928D01*
X123160000Y-101231928D01*
X123035518Y-101244188D01*
X122915820Y-101280498D01*
X122805506Y-101339463D01*
X122708815Y-101418815D01*
X122629463Y-101515506D01*
X122570498Y-101625820D01*
X122534188Y-101745518D01*
X122521928Y-101870000D01*
X122521928Y-103870000D01*
X122534188Y-103994482D01*
X122570498Y-104114180D01*
X122629463Y-104224494D01*
X122708815Y-104321185D01*
X122805506Y-104400537D01*
X122852655Y-104425739D01*
X122793969Y-104497248D01*
X122642148Y-104781285D01*
X122548657Y-105089484D01*
X122517089Y-105410000D01*
X116967000Y-105410000D01*
X116967000Y-101175117D01*
X117391000Y-101175117D01*
X117391000Y-101516883D01*
X117457675Y-101852081D01*
X117588463Y-102167831D01*
X117778337Y-102451998D01*
X118020002Y-102693663D01*
X118304169Y-102883537D01*
X118619919Y-103014325D01*
X118955117Y-103081000D01*
X119296883Y-103081000D01*
X119632081Y-103014325D01*
X119947831Y-102883537D01*
X120231998Y-102693663D01*
X120473663Y-102451998D01*
X120663537Y-102167831D01*
X120794325Y-101852081D01*
X120861000Y-101516883D01*
X120861000Y-101175117D01*
X120794325Y-100839919D01*
X120663537Y-100524169D01*
X120474999Y-100242000D01*
X148625928Y-100242000D01*
X148625928Y-101942000D01*
X148638188Y-102066482D01*
X148674498Y-102186180D01*
X148733463Y-102296494D01*
X148812815Y-102393185D01*
X148909506Y-102472537D01*
X149019820Y-102531502D01*
X149139518Y-102567812D01*
X149264000Y-102580072D01*
X150964000Y-102580072D01*
X151088482Y-102567812D01*
X151208180Y-102531502D01*
X151318494Y-102472537D01*
X151415185Y-102393185D01*
X151494537Y-102296494D01*
X151553502Y-102186180D01*
X151575513Y-102113620D01*
X151707368Y-102245475D01*
X151950589Y-102407990D01*
X152220842Y-102519932D01*
X152507740Y-102577000D01*
X152800260Y-102577000D01*
X153087158Y-102519932D01*
X153357411Y-102407990D01*
X153600632Y-102245475D01*
X153807475Y-102038632D01*
X153924000Y-101864240D01*
X154040525Y-102038632D01*
X154247368Y-102245475D01*
X154490589Y-102407990D01*
X154760842Y-102519932D01*
X155047740Y-102577000D01*
X155340260Y-102577000D01*
X155627158Y-102519932D01*
X155897411Y-102407990D01*
X156140632Y-102245475D01*
X156347475Y-102038632D01*
X156509990Y-101795411D01*
X156621932Y-101525158D01*
X156679000Y-101238260D01*
X156679000Y-101175117D01*
X161079000Y-101175117D01*
X161079000Y-101516883D01*
X161145675Y-101852081D01*
X161276463Y-102167831D01*
X161466337Y-102451998D01*
X161708002Y-102693663D01*
X161992169Y-102883537D01*
X162307919Y-103014325D01*
X162643117Y-103081000D01*
X162984883Y-103081000D01*
X163320081Y-103014325D01*
X163635831Y-102883537D01*
X163919998Y-102693663D01*
X164161663Y-102451998D01*
X164351537Y-102167831D01*
X164482325Y-101852081D01*
X164549000Y-101516883D01*
X164549000Y-101175117D01*
X164482325Y-100839919D01*
X164351537Y-100524169D01*
X164161663Y-100240002D01*
X163919998Y-99998337D01*
X163635831Y-99808463D01*
X163320081Y-99677675D01*
X162984883Y-99611000D01*
X162643117Y-99611000D01*
X162307919Y-99677675D01*
X161992169Y-99808463D01*
X161708002Y-99998337D01*
X161466337Y-100240002D01*
X161276463Y-100524169D01*
X161145675Y-100839919D01*
X161079000Y-101175117D01*
X156679000Y-101175117D01*
X156679000Y-100945740D01*
X156621932Y-100658842D01*
X156509990Y-100388589D01*
X156347475Y-100145368D01*
X156140632Y-99938525D01*
X155897411Y-99776010D01*
X155627158Y-99664068D01*
X155340260Y-99607000D01*
X155047740Y-99607000D01*
X154760842Y-99664068D01*
X154490589Y-99776010D01*
X154247368Y-99938525D01*
X154040525Y-100145368D01*
X153924000Y-100319760D01*
X153807475Y-100145368D01*
X153600632Y-99938525D01*
X153357411Y-99776010D01*
X153087158Y-99664068D01*
X152800260Y-99607000D01*
X152507740Y-99607000D01*
X152220842Y-99664068D01*
X151950589Y-99776010D01*
X151707368Y-99938525D01*
X151575513Y-100070380D01*
X151553502Y-99997820D01*
X151494537Y-99887506D01*
X151415185Y-99790815D01*
X151318494Y-99711463D01*
X151208180Y-99652498D01*
X151088482Y-99616188D01*
X150964000Y-99603928D01*
X149264000Y-99603928D01*
X149139518Y-99616188D01*
X149019820Y-99652498D01*
X148909506Y-99711463D01*
X148812815Y-99790815D01*
X148733463Y-99887506D01*
X148674498Y-99997820D01*
X148638188Y-100117518D01*
X148625928Y-100242000D01*
X120474999Y-100242000D01*
X120473663Y-100240002D01*
X120231998Y-99998337D01*
X119947831Y-99808463D01*
X119632081Y-99677675D01*
X119296883Y-99611000D01*
X118955117Y-99611000D01*
X118619919Y-99677675D01*
X118304169Y-99808463D01*
X118020002Y-99998337D01*
X117778337Y-100240002D01*
X117588463Y-100524169D01*
X117457675Y-100839919D01*
X117391000Y-101175117D01*
X116967000Y-101175117D01*
X116967000Y-99187000D01*
X164973000Y-99187000D01*
X164973000Y-121793000D01*
G37*
X164973000Y-121793000D02*
X116967000Y-121793000D01*
X116967000Y-119463117D01*
X117391000Y-119463117D01*
X117391000Y-119804883D01*
X117457675Y-120140081D01*
X117588463Y-120455831D01*
X117778337Y-120739998D01*
X118020002Y-120981663D01*
X118304169Y-121171537D01*
X118619919Y-121302325D01*
X118955117Y-121369000D01*
X119296883Y-121369000D01*
X119632081Y-121302325D01*
X119947831Y-121171537D01*
X120231998Y-120981663D01*
X120473663Y-120739998D01*
X120663537Y-120455831D01*
X120794325Y-120140081D01*
X120861000Y-119804883D01*
X120861000Y-119463117D01*
X161079000Y-119463117D01*
X161079000Y-119804883D01*
X161145675Y-120140081D01*
X161276463Y-120455831D01*
X161466337Y-120739998D01*
X161708002Y-120981663D01*
X161992169Y-121171537D01*
X162307919Y-121302325D01*
X162643117Y-121369000D01*
X162984883Y-121369000D01*
X163320081Y-121302325D01*
X163635831Y-121171537D01*
X163919998Y-120981663D01*
X164161663Y-120739998D01*
X164351537Y-120455831D01*
X164482325Y-120140081D01*
X164549000Y-119804883D01*
X164549000Y-119463117D01*
X164482325Y-119127919D01*
X164351537Y-118812169D01*
X164161663Y-118528002D01*
X163919998Y-118286337D01*
X163635831Y-118096463D01*
X163320081Y-117965675D01*
X162984883Y-117899000D01*
X162643117Y-117899000D01*
X162307919Y-117965675D01*
X161992169Y-118096463D01*
X161708002Y-118286337D01*
X161466337Y-118528002D01*
X161276463Y-118812169D01*
X161145675Y-119127919D01*
X161079000Y-119463117D01*
X120861000Y-119463117D01*
X120794325Y-119127919D01*
X120663537Y-118812169D01*
X120473663Y-118528002D01*
X120231998Y-118286337D01*
X119947831Y-118096463D01*
X119672541Y-117982434D01*
X122569876Y-117982434D01*
X122600856Y-118110355D01*
X122729990Y-118404761D01*
X122914078Y-118668317D01*
X123146046Y-118890895D01*
X123416980Y-119063942D01*
X123716468Y-119180807D01*
X124033000Y-119237000D01*
X124333000Y-119237000D01*
X124333000Y-117729000D01*
X124587000Y-117729000D01*
X124587000Y-119237000D01*
X124887000Y-119237000D01*
X125203532Y-119180807D01*
X125503020Y-119063942D01*
X125773954Y-118890895D01*
X126005922Y-118668317D01*
X126190010Y-118404761D01*
X126319144Y-118110355D01*
X126350124Y-117982434D01*
X126335340Y-117951039D01*
X128656096Y-117951039D01*
X128696754Y-118085087D01*
X128816963Y-118339420D01*
X128984481Y-118565414D01*
X129192869Y-118754385D01*
X129434119Y-118899070D01*
X129698960Y-118993909D01*
X129921000Y-118872624D01*
X129921000Y-117729000D01*
X130175000Y-117729000D01*
X130175000Y-118872624D01*
X130397040Y-118993909D01*
X130661881Y-118899070D01*
X130903131Y-118754385D01*
X131111519Y-118565414D01*
X131279037Y-118339420D01*
X131399246Y-118085087D01*
X131439904Y-117951039D01*
X131317915Y-117729000D01*
X130175000Y-117729000D01*
X129921000Y-117729000D01*
X128778085Y-117729000D01*
X128656096Y-117951039D01*
X126335340Y-117951039D01*
X126230777Y-117729000D01*
X124587000Y-117729000D01*
X124333000Y-117729000D01*
X122689223Y-117729000D01*
X122569876Y-117982434D01*
X119672541Y-117982434D01*
X119632081Y-117965675D01*
X119296883Y-117899000D01*
X118955117Y-117899000D01*
X118619919Y-117965675D01*
X118304169Y-118096463D01*
X118020002Y-118286337D01*
X117778337Y-118528002D01*
X117588463Y-118812169D01*
X117457675Y-119127919D01*
X117391000Y-119463117D01*
X116967000Y-119463117D01*
X116967000Y-115062000D01*
X122517089Y-115062000D01*
X122548657Y-115382516D01*
X122642148Y-115690715D01*
X122793969Y-115974752D01*
X122998286Y-116223714D01*
X123128142Y-116330284D01*
X122914078Y-116535683D01*
X122729990Y-116799239D01*
X122600856Y-117093645D01*
X122569876Y-117221566D01*
X122689223Y-117475000D01*
X124333000Y-117475000D01*
X124333000Y-117455000D01*
X124587000Y-117455000D01*
X124587000Y-117475000D01*
X126230777Y-117475000D01*
X126350124Y-117221566D01*
X126319144Y-117093645D01*
X126190010Y-116799239D01*
X126005922Y-116535683D01*
X125791858Y-116330284D01*
X125921714Y-116223714D01*
X126126031Y-115974752D01*
X126277852Y-115690715D01*
X126371343Y-115382516D01*
X126402911Y-115062000D01*
X126371343Y-114741484D01*
X126277852Y-114433285D01*
X126126031Y-114149248D01*
X126067345Y-114077739D01*
X126114494Y-114052537D01*
X126211185Y-113973185D01*
X126290537Y-113876494D01*
X126349502Y-113766180D01*
X126385812Y-113646482D01*
X126398072Y-113522000D01*
X126398072Y-111522000D01*
X126385812Y-111397518D01*
X126349502Y-111277820D01*
X126290537Y-111167506D01*
X126211185Y-111070815D01*
X126114494Y-110991463D01*
X126004180Y-110932498D01*
X125884482Y-110896188D01*
X125760000Y-110883928D01*
X123160000Y-110883928D01*
X123035518Y-110896188D01*
X122915820Y-110932498D01*
X122805506Y-110991463D01*
X122708815Y-111070815D01*
X122629463Y-111167506D01*
X122570498Y-111277820D01*
X122534188Y-111397518D01*
X122521928Y-111522000D01*
X122521928Y-113522000D01*
X122534188Y-113646482D01*
X122570498Y-113766180D01*
X122629463Y-113876494D01*
X122708815Y-113973185D01*
X122805506Y-114052537D01*
X122852655Y-114077739D01*
X122793969Y-114149248D01*
X122642148Y-114433285D01*
X122548657Y-114741484D01*
X122517089Y-115062000D01*
X116967000Y-115062000D01*
X116967000Y-108330434D01*
X122569876Y-108330434D01*
X122600856Y-108458355D01*
X122729990Y-108752761D01*
X122914078Y-109016317D01*
X123146046Y-109238895D01*
X123416980Y-109411942D01*
X123716468Y-109528807D01*
X124033000Y-109585000D01*
X124333000Y-109585000D01*
X124333000Y-108077000D01*
X124587000Y-108077000D01*
X124587000Y-109585000D01*
X124887000Y-109585000D01*
X125203532Y-109528807D01*
X125503020Y-109411942D01*
X125773954Y-109238895D01*
X125833249Y-109182000D01*
X128609928Y-109182000D01*
X128609928Y-110782000D01*
X128622188Y-110906482D01*
X128658498Y-111026180D01*
X128717463Y-111136494D01*
X128796815Y-111233185D01*
X128893506Y-111312537D01*
X129003820Y-111371502D01*
X129123518Y-111407812D01*
X129131961Y-111408643D01*
X128933363Y-111607241D01*
X128776320Y-111842273D01*
X128668147Y-112103426D01*
X128613000Y-112380665D01*
X128613000Y-112663335D01*
X128668147Y-112940574D01*
X128776320Y-113201727D01*
X128933363Y-113436759D01*
X129133241Y-113636637D01*
X129365759Y-113792000D01*
X129133241Y-113947363D01*
X128933363Y-114147241D01*
X128776320Y-114382273D01*
X128668147Y-114643426D01*
X128613000Y-114920665D01*
X128613000Y-115203335D01*
X128668147Y-115480574D01*
X128776320Y-115741727D01*
X128933363Y-115976759D01*
X129133241Y-116176637D01*
X129368273Y-116333680D01*
X129378865Y-116338067D01*
X129192869Y-116449615D01*
X128984481Y-116638586D01*
X128816963Y-116864580D01*
X128696754Y-117118913D01*
X128656096Y-117252961D01*
X128778085Y-117475000D01*
X129921000Y-117475000D01*
X129921000Y-117455000D01*
X130175000Y-117455000D01*
X130175000Y-117475000D01*
X131317915Y-117475000D01*
X131439904Y-117252961D01*
X131399246Y-117118913D01*
X131279037Y-116864580D01*
X131111519Y-116638586D01*
X130903131Y-116449615D01*
X130717135Y-116338067D01*
X130727727Y-116333680D01*
X130962759Y-116176637D01*
X131162637Y-115976759D01*
X131319680Y-115741727D01*
X131427853Y-115480574D01*
X131483000Y-115203335D01*
X131483000Y-114920665D01*
X131427853Y-114643426D01*
X131319680Y-114382273D01*
X131162637Y-114147241D01*
X130962759Y-113947363D01*
X130730241Y-113792000D01*
X130962759Y-113636637D01*
X131162637Y-113436759D01*
X131319680Y-113201727D01*
X131427853Y-112940574D01*
X131483000Y-112663335D01*
X131483000Y-112380665D01*
X131427853Y-112103426D01*
X131319680Y-111842273D01*
X131162637Y-111607241D01*
X130964039Y-111408643D01*
X130972482Y-111407812D01*
X131092180Y-111371502D01*
X131202494Y-111312537D01*
X131299185Y-111233185D01*
X131378537Y-111136494D01*
X131437502Y-111026180D01*
X131473812Y-110906482D01*
X131486072Y-110782000D01*
X131486072Y-109840665D01*
X136233000Y-109840665D01*
X136233000Y-110123335D01*
X136288147Y-110400574D01*
X136396320Y-110661727D01*
X136553363Y-110896759D01*
X136753241Y-111096637D01*
X136985759Y-111252000D01*
X136753241Y-111407363D01*
X136553363Y-111607241D01*
X136396320Y-111842273D01*
X136288147Y-112103426D01*
X136233000Y-112380665D01*
X136233000Y-112663335D01*
X136288147Y-112940574D01*
X136396320Y-113201727D01*
X136553363Y-113436759D01*
X136753241Y-113636637D01*
X136985759Y-113792000D01*
X136753241Y-113947363D01*
X136553363Y-114147241D01*
X136396320Y-114382273D01*
X136288147Y-114643426D01*
X136233000Y-114920665D01*
X136233000Y-115203335D01*
X136288147Y-115480574D01*
X136396320Y-115741727D01*
X136553363Y-115976759D01*
X136753241Y-116176637D01*
X136985759Y-116332000D01*
X136753241Y-116487363D01*
X136553363Y-116687241D01*
X136396320Y-116922273D01*
X136288147Y-117183426D01*
X136233000Y-117460665D01*
X136233000Y-117743335D01*
X136288147Y-118020574D01*
X136396320Y-118281727D01*
X136553363Y-118516759D01*
X136753241Y-118716637D01*
X136988273Y-118873680D01*
X137249426Y-118981853D01*
X137526665Y-119037000D01*
X137809335Y-119037000D01*
X138086574Y-118981853D01*
X138347727Y-118873680D01*
X138582759Y-118716637D01*
X138782637Y-118516759D01*
X138939680Y-118281727D01*
X139047853Y-118020574D01*
X139103000Y-117743335D01*
X139103000Y-117460665D01*
X139047853Y-117183426D01*
X138939680Y-116922273D01*
X138782637Y-116687241D01*
X138582759Y-116487363D01*
X138350241Y-116332000D01*
X138582759Y-116176637D01*
X138782637Y-115976759D01*
X138800226Y-115950434D01*
X151271876Y-115950434D01*
X151302856Y-116078355D01*
X151431990Y-116372761D01*
X151616078Y-116636317D01*
X151848046Y-116858895D01*
X152118980Y-117031942D01*
X152418468Y-117148807D01*
X152735000Y-117205000D01*
X153035000Y-117205000D01*
X153035000Y-115697000D01*
X153289000Y-115697000D01*
X153289000Y-117205000D01*
X153589000Y-117205000D01*
X153905532Y-117148807D01*
X154205020Y-117031942D01*
X154475954Y-116858895D01*
X154707922Y-116636317D01*
X154892010Y-116372761D01*
X155021144Y-116078355D01*
X155052124Y-115950434D01*
X154932777Y-115697000D01*
X153289000Y-115697000D01*
X153035000Y-115697000D01*
X151391223Y-115697000D01*
X151271876Y-115950434D01*
X138800226Y-115950434D01*
X138939680Y-115741727D01*
X139047853Y-115480574D01*
X139103000Y-115203335D01*
X139103000Y-114920665D01*
X139047853Y-114643426D01*
X138939680Y-114382273D01*
X138782637Y-114147241D01*
X138582759Y-113947363D01*
X138350241Y-113792000D01*
X138582759Y-113636637D01*
X138782637Y-113436759D01*
X138939680Y-113201727D01*
X139047853Y-112940574D01*
X139103000Y-112663335D01*
X139103000Y-112380665D01*
X139047853Y-112103426D01*
X138939680Y-111842273D01*
X138782637Y-111607241D01*
X138582759Y-111407363D01*
X138350241Y-111252000D01*
X138582759Y-111096637D01*
X138782637Y-110896759D01*
X138939680Y-110661727D01*
X139047853Y-110400574D01*
X139103000Y-110123335D01*
X139103000Y-109840665D01*
X139047853Y-109563426D01*
X138939680Y-109302273D01*
X138782637Y-109067241D01*
X138582759Y-108867363D01*
X138347727Y-108710320D01*
X138086574Y-108602147D01*
X137809335Y-108547000D01*
X137526665Y-108547000D01*
X137249426Y-108602147D01*
X136988273Y-108710320D01*
X136753241Y-108867363D01*
X136553363Y-109067241D01*
X136396320Y-109302273D01*
X136288147Y-109563426D01*
X136233000Y-109840665D01*
X131486072Y-109840665D01*
X131486072Y-109182000D01*
X131473812Y-109057518D01*
X131437502Y-108937820D01*
X131378537Y-108827506D01*
X131299185Y-108730815D01*
X131202494Y-108651463D01*
X131092180Y-108592498D01*
X130972482Y-108556188D01*
X130848000Y-108543928D01*
X129248000Y-108543928D01*
X129123518Y-108556188D01*
X129003820Y-108592498D01*
X128893506Y-108651463D01*
X128796815Y-108730815D01*
X128717463Y-108827506D01*
X128658498Y-108937820D01*
X128622188Y-109057518D01*
X128609928Y-109182000D01*
X125833249Y-109182000D01*
X126005922Y-109016317D01*
X126190010Y-108752761D01*
X126319144Y-108458355D01*
X126350124Y-108330434D01*
X126230777Y-108077000D01*
X124587000Y-108077000D01*
X124333000Y-108077000D01*
X122689223Y-108077000D01*
X122569876Y-108330434D01*
X116967000Y-108330434D01*
X116967000Y-105410000D01*
X122517089Y-105410000D01*
X122548657Y-105730516D01*
X122642148Y-106038715D01*
X122793969Y-106322752D01*
X122998286Y-106571714D01*
X123128142Y-106678284D01*
X122914078Y-106883683D01*
X122729990Y-107147239D01*
X122600856Y-107441645D01*
X122569876Y-107569566D01*
X122689223Y-107823000D01*
X124333000Y-107823000D01*
X124333000Y-107803000D01*
X124587000Y-107803000D01*
X124587000Y-107823000D01*
X126230777Y-107823000D01*
X126350124Y-107569566D01*
X126319144Y-107441645D01*
X126190010Y-107147239D01*
X126005922Y-106883683D01*
X125791858Y-106678284D01*
X125921714Y-106571714D01*
X126126031Y-106322752D01*
X126146388Y-106284665D01*
X128613000Y-106284665D01*
X128613000Y-106567335D01*
X128668147Y-106844574D01*
X128776320Y-107105727D01*
X128933363Y-107340759D01*
X129133241Y-107540637D01*
X129368273Y-107697680D01*
X129629426Y-107805853D01*
X129906665Y-107861000D01*
X130189335Y-107861000D01*
X130466574Y-107805853D01*
X130727727Y-107697680D01*
X130962759Y-107540637D01*
X131162637Y-107340759D01*
X131319680Y-107105727D01*
X131427853Y-106844574D01*
X131483000Y-106567335D01*
X131483000Y-106284665D01*
X136233000Y-106284665D01*
X136233000Y-106567335D01*
X136288147Y-106844574D01*
X136396320Y-107105727D01*
X136553363Y-107340759D01*
X136753241Y-107540637D01*
X136988273Y-107697680D01*
X137249426Y-107805853D01*
X137526665Y-107861000D01*
X137809335Y-107861000D01*
X137872678Y-107848400D01*
X141754328Y-107848400D01*
X141754328Y-109575600D01*
X141766588Y-109700082D01*
X141802898Y-109819780D01*
X141861863Y-109930094D01*
X141941215Y-110026785D01*
X142037906Y-110106137D01*
X142148220Y-110165102D01*
X142206023Y-110182636D01*
X142091961Y-110296698D01*
X141927958Y-110542147D01*
X141814990Y-110814875D01*
X141757400Y-111104401D01*
X141757400Y-111399599D01*
X141814990Y-111689125D01*
X141927958Y-111961853D01*
X142091961Y-112207302D01*
X142300698Y-112416039D01*
X142459281Y-112522000D01*
X142300698Y-112627961D01*
X142091961Y-112836698D01*
X141927958Y-113082147D01*
X141814990Y-113354875D01*
X141757400Y-113644401D01*
X141757400Y-113939599D01*
X141814990Y-114229125D01*
X141927958Y-114501853D01*
X142091961Y-114747302D01*
X142300698Y-114956039D01*
X142546147Y-115120042D01*
X142818875Y-115233010D01*
X143108401Y-115290600D01*
X143403599Y-115290600D01*
X143693125Y-115233010D01*
X143965853Y-115120042D01*
X144211302Y-114956039D01*
X144420039Y-114747302D01*
X144530559Y-114581897D01*
X144589183Y-114680488D01*
X144785707Y-114898854D01*
X145021056Y-115074684D01*
X145286186Y-115201222D01*
X145436974Y-115246958D01*
X145669000Y-115125817D01*
X145669000Y-113919000D01*
X145923000Y-113919000D01*
X145923000Y-115125817D01*
X146155026Y-115246958D01*
X146305814Y-115201222D01*
X146570944Y-115074684D01*
X146806293Y-114898854D01*
X147002817Y-114680488D01*
X147152964Y-114427978D01*
X147250963Y-114151027D01*
X147130464Y-113919000D01*
X145923000Y-113919000D01*
X145669000Y-113919000D01*
X145649000Y-113919000D01*
X145649000Y-113665000D01*
X145669000Y-113665000D01*
X145669000Y-113645000D01*
X145923000Y-113645000D01*
X145923000Y-113665000D01*
X147130464Y-113665000D01*
X147250963Y-113432973D01*
X147152964Y-113156022D01*
X147002817Y-112903512D01*
X146806293Y-112685146D01*
X146590187Y-112523692D01*
X146751302Y-112416039D01*
X146960039Y-112207302D01*
X147124042Y-111961853D01*
X147237010Y-111689125D01*
X147294600Y-111399599D01*
X147294600Y-111104401D01*
X147237010Y-110814875D01*
X147124042Y-110542147D01*
X146960039Y-110296698D01*
X146751302Y-110087961D01*
X146592719Y-109982000D01*
X146751302Y-109876039D01*
X146960039Y-109667302D01*
X147124042Y-109421853D01*
X147237010Y-109149125D01*
X147294600Y-108859599D01*
X147294600Y-108564401D01*
X147237010Y-108274875D01*
X147124042Y-108002147D01*
X147089199Y-107950000D01*
X151219089Y-107950000D01*
X151250657Y-108270516D01*
X151344148Y-108578715D01*
X151495969Y-108862752D01*
X151700286Y-109111714D01*
X151832233Y-109220000D01*
X151700286Y-109328286D01*
X151495969Y-109577248D01*
X151344148Y-109861285D01*
X151250657Y-110169484D01*
X151219089Y-110490000D01*
X151250657Y-110810516D01*
X151344148Y-111118715D01*
X151495969Y-111402752D01*
X151700286Y-111651714D01*
X151832233Y-111760000D01*
X151700286Y-111868286D01*
X151495969Y-112117248D01*
X151344148Y-112401285D01*
X151250657Y-112709484D01*
X151219089Y-113030000D01*
X151250657Y-113350516D01*
X151344148Y-113658715D01*
X151495969Y-113942752D01*
X151700286Y-114191714D01*
X151830142Y-114298284D01*
X151616078Y-114503683D01*
X151431990Y-114767239D01*
X151302856Y-115061645D01*
X151271876Y-115189566D01*
X151391223Y-115443000D01*
X153035000Y-115443000D01*
X153035000Y-115423000D01*
X153289000Y-115423000D01*
X153289000Y-115443000D01*
X154932777Y-115443000D01*
X155052124Y-115189566D01*
X155021144Y-115061645D01*
X154892010Y-114767239D01*
X154707922Y-114503683D01*
X154493858Y-114298284D01*
X154623714Y-114191714D01*
X154828031Y-113942752D01*
X154979852Y-113658715D01*
X155073343Y-113350516D01*
X155104911Y-113030000D01*
X155073343Y-112709484D01*
X154979852Y-112401285D01*
X154833065Y-112126665D01*
X157121672Y-112126665D01*
X157121672Y-112409335D01*
X157176819Y-112686574D01*
X157284992Y-112947727D01*
X157442035Y-113182759D01*
X157641913Y-113382637D01*
X157876945Y-113539680D01*
X158138098Y-113647853D01*
X158415337Y-113703000D01*
X158698007Y-113703000D01*
X158975246Y-113647853D01*
X159236399Y-113539680D01*
X159471431Y-113382637D01*
X159671309Y-113182759D01*
X159828352Y-112947727D01*
X159936525Y-112686574D01*
X159991672Y-112409335D01*
X159991672Y-112126665D01*
X160931672Y-112126665D01*
X160931672Y-112409335D01*
X160986819Y-112686574D01*
X161094992Y-112947727D01*
X161252035Y-113182759D01*
X161451913Y-113382637D01*
X161686945Y-113539680D01*
X161948098Y-113647853D01*
X162225337Y-113703000D01*
X162508007Y-113703000D01*
X162785246Y-113647853D01*
X163046399Y-113539680D01*
X163281431Y-113382637D01*
X163481309Y-113182759D01*
X163638352Y-112947727D01*
X163746525Y-112686574D01*
X163801672Y-112409335D01*
X163801672Y-112126665D01*
X163746525Y-111849426D01*
X163638352Y-111588273D01*
X163481309Y-111353241D01*
X163281431Y-111153363D01*
X163046399Y-110996320D01*
X162785246Y-110888147D01*
X162508007Y-110833000D01*
X162225337Y-110833000D01*
X161948098Y-110888147D01*
X161686945Y-110996320D01*
X161451913Y-111153363D01*
X161252035Y-111353241D01*
X161094992Y-111588273D01*
X160986819Y-111849426D01*
X160931672Y-112126665D01*
X159991672Y-112126665D01*
X159936525Y-111849426D01*
X159828352Y-111588273D01*
X159671309Y-111353241D01*
X159471431Y-111153363D01*
X159236399Y-110996320D01*
X158975246Y-110888147D01*
X158698007Y-110833000D01*
X158415337Y-110833000D01*
X158138098Y-110888147D01*
X157876945Y-110996320D01*
X157641913Y-111153363D01*
X157442035Y-111353241D01*
X157284992Y-111588273D01*
X157176819Y-111849426D01*
X157121672Y-112126665D01*
X154833065Y-112126665D01*
X154828031Y-112117248D01*
X154623714Y-111868286D01*
X154491767Y-111760000D01*
X154623714Y-111651714D01*
X154828031Y-111402752D01*
X154979852Y-111118715D01*
X155073343Y-110810516D01*
X155104911Y-110490000D01*
X155073343Y-110169484D01*
X154979852Y-109861285D01*
X154828031Y-109577248D01*
X154623714Y-109328286D01*
X154491767Y-109220000D01*
X154623714Y-109111714D01*
X154828031Y-108862752D01*
X154979852Y-108578715D01*
X155073343Y-108270516D01*
X155104911Y-107950000D01*
X155073343Y-107629484D01*
X154979852Y-107321285D01*
X154828031Y-107037248D01*
X154769345Y-106965739D01*
X154816494Y-106940537D01*
X154913185Y-106861185D01*
X154992537Y-106764494D01*
X155051502Y-106654180D01*
X155087812Y-106534482D01*
X155100072Y-106410000D01*
X155100072Y-104506665D01*
X157121672Y-104506665D01*
X157121672Y-104789335D01*
X157176819Y-105066574D01*
X157284992Y-105327727D01*
X157442035Y-105562759D01*
X157641913Y-105762637D01*
X157876945Y-105919680D01*
X158138098Y-106027853D01*
X158415337Y-106083000D01*
X158698007Y-106083000D01*
X158975246Y-106027853D01*
X159236399Y-105919680D01*
X159471431Y-105762637D01*
X159671309Y-105562759D01*
X159828352Y-105327727D01*
X159936525Y-105066574D01*
X159991672Y-104789335D01*
X159991672Y-104506665D01*
X160931672Y-104506665D01*
X160931672Y-104789335D01*
X160986819Y-105066574D01*
X161094992Y-105327727D01*
X161252035Y-105562759D01*
X161451913Y-105762637D01*
X161686945Y-105919680D01*
X161948098Y-106027853D01*
X162225337Y-106083000D01*
X162508007Y-106083000D01*
X162785246Y-106027853D01*
X163046399Y-105919680D01*
X163281431Y-105762637D01*
X163481309Y-105562759D01*
X163638352Y-105327727D01*
X163746525Y-105066574D01*
X163801672Y-104789335D01*
X163801672Y-104506665D01*
X163746525Y-104229426D01*
X163638352Y-103968273D01*
X163481309Y-103733241D01*
X163281431Y-103533363D01*
X163046399Y-103376320D01*
X162785246Y-103268147D01*
X162508007Y-103213000D01*
X162225337Y-103213000D01*
X161948098Y-103268147D01*
X161686945Y-103376320D01*
X161451913Y-103533363D01*
X161252035Y-103733241D01*
X161094992Y-103968273D01*
X160986819Y-104229426D01*
X160931672Y-104506665D01*
X159991672Y-104506665D01*
X159936525Y-104229426D01*
X159828352Y-103968273D01*
X159671309Y-103733241D01*
X159471431Y-103533363D01*
X159236399Y-103376320D01*
X158975246Y-103268147D01*
X158698007Y-103213000D01*
X158415337Y-103213000D01*
X158138098Y-103268147D01*
X157876945Y-103376320D01*
X157641913Y-103533363D01*
X157442035Y-103733241D01*
X157284992Y-103968273D01*
X157176819Y-104229426D01*
X157121672Y-104506665D01*
X155100072Y-104506665D01*
X155100072Y-104410000D01*
X155087812Y-104285518D01*
X155051502Y-104165820D01*
X154992537Y-104055506D01*
X154913185Y-103958815D01*
X154816494Y-103879463D01*
X154706180Y-103820498D01*
X154586482Y-103784188D01*
X154462000Y-103771928D01*
X151862000Y-103771928D01*
X151737518Y-103784188D01*
X151617820Y-103820498D01*
X151507506Y-103879463D01*
X151410815Y-103958815D01*
X151331463Y-104055506D01*
X151272498Y-104165820D01*
X151236188Y-104285518D01*
X151223928Y-104410000D01*
X151223928Y-106410000D01*
X151236188Y-106534482D01*
X151272498Y-106654180D01*
X151331463Y-106764494D01*
X151410815Y-106861185D01*
X151507506Y-106940537D01*
X151554655Y-106965739D01*
X151495969Y-107037248D01*
X151344148Y-107321285D01*
X151250657Y-107629484D01*
X151219089Y-107950000D01*
X147089199Y-107950000D01*
X146960039Y-107756698D01*
X146751302Y-107547961D01*
X146505853Y-107383958D01*
X146233125Y-107270990D01*
X145943599Y-107213400D01*
X145648401Y-107213400D01*
X145358875Y-107270990D01*
X145086147Y-107383958D01*
X144840698Y-107547961D01*
X144726636Y-107662023D01*
X144709102Y-107604220D01*
X144650137Y-107493906D01*
X144570785Y-107397215D01*
X144474094Y-107317863D01*
X144363780Y-107258898D01*
X144244082Y-107222588D01*
X144119600Y-107210328D01*
X142392400Y-107210328D01*
X142267918Y-107222588D01*
X142148220Y-107258898D01*
X142037906Y-107317863D01*
X141941215Y-107397215D01*
X141861863Y-107493906D01*
X141802898Y-107604220D01*
X141766588Y-107723918D01*
X141754328Y-107848400D01*
X137872678Y-107848400D01*
X138086574Y-107805853D01*
X138347727Y-107697680D01*
X138582759Y-107540637D01*
X138782637Y-107340759D01*
X138939680Y-107105727D01*
X139047853Y-106844574D01*
X139103000Y-106567335D01*
X139103000Y-106284665D01*
X139047853Y-106007426D01*
X138939680Y-105746273D01*
X138782637Y-105511241D01*
X138582759Y-105311363D01*
X138347727Y-105154320D01*
X138086574Y-105046147D01*
X137809335Y-104991000D01*
X137526665Y-104991000D01*
X137249426Y-105046147D01*
X136988273Y-105154320D01*
X136753241Y-105311363D01*
X136553363Y-105511241D01*
X136396320Y-105746273D01*
X136288147Y-106007426D01*
X136233000Y-106284665D01*
X131483000Y-106284665D01*
X131427853Y-106007426D01*
X131319680Y-105746273D01*
X131162637Y-105511241D01*
X130962759Y-105311363D01*
X130727727Y-105154320D01*
X130466574Y-105046147D01*
X130189335Y-104991000D01*
X129906665Y-104991000D01*
X129629426Y-105046147D01*
X129368273Y-105154320D01*
X129133241Y-105311363D01*
X128933363Y-105511241D01*
X128776320Y-105746273D01*
X128668147Y-106007426D01*
X128613000Y-106284665D01*
X126146388Y-106284665D01*
X126277852Y-106038715D01*
X126371343Y-105730516D01*
X126402911Y-105410000D01*
X126371343Y-105089484D01*
X126277852Y-104781285D01*
X126126031Y-104497248D01*
X126067345Y-104425739D01*
X126114494Y-104400537D01*
X126211185Y-104321185D01*
X126290537Y-104224494D01*
X126349502Y-104114180D01*
X126385812Y-103994482D01*
X126398072Y-103870000D01*
X126398072Y-103236665D01*
X128613000Y-103236665D01*
X128613000Y-103519335D01*
X128668147Y-103796574D01*
X128776320Y-104057727D01*
X128933363Y-104292759D01*
X129133241Y-104492637D01*
X129368273Y-104649680D01*
X129629426Y-104757853D01*
X129906665Y-104813000D01*
X130189335Y-104813000D01*
X130466574Y-104757853D01*
X130727727Y-104649680D01*
X130962759Y-104492637D01*
X131084694Y-104370702D01*
X131734903Y-104370702D01*
X131806486Y-104614671D01*
X132061996Y-104735571D01*
X132336184Y-104804300D01*
X132618512Y-104818217D01*
X132898130Y-104776787D01*
X133164292Y-104681603D01*
X133289514Y-104614671D01*
X133361097Y-104370702D01*
X134314903Y-104370702D01*
X134386486Y-104614671D01*
X134641996Y-104735571D01*
X134916184Y-104804300D01*
X135198512Y-104818217D01*
X135478130Y-104776787D01*
X135744292Y-104681603D01*
X135869514Y-104614671D01*
X135941097Y-104370702D01*
X135128000Y-103557605D01*
X134314903Y-104370702D01*
X133361097Y-104370702D01*
X132548000Y-103557605D01*
X131734903Y-104370702D01*
X131084694Y-104370702D01*
X131162637Y-104292759D01*
X131296692Y-104092131D01*
X131311329Y-104119514D01*
X131555298Y-104191097D01*
X132368395Y-103378000D01*
X132727605Y-103378000D01*
X133540702Y-104191097D01*
X133784671Y-104119514D01*
X133834754Y-104013669D01*
X133891329Y-104119514D01*
X134135298Y-104191097D01*
X134948395Y-103378000D01*
X135307605Y-103378000D01*
X136120702Y-104191097D01*
X136364671Y-104119514D01*
X136378324Y-104090659D01*
X136513363Y-104292759D01*
X136713241Y-104492637D01*
X136948273Y-104649680D01*
X137209426Y-104757853D01*
X137486665Y-104813000D01*
X137769335Y-104813000D01*
X138046574Y-104757853D01*
X138307727Y-104649680D01*
X138542759Y-104492637D01*
X138742637Y-104292759D01*
X138899680Y-104057727D01*
X139007853Y-103796574D01*
X139063000Y-103519335D01*
X139063000Y-103236665D01*
X139007853Y-102959426D01*
X138899680Y-102698273D01*
X138742637Y-102463241D01*
X138542759Y-102263363D01*
X138307727Y-102106320D01*
X138046574Y-101998147D01*
X137769335Y-101943000D01*
X137486665Y-101943000D01*
X137209426Y-101998147D01*
X136948273Y-102106320D01*
X136713241Y-102263363D01*
X136513363Y-102463241D01*
X136379308Y-102663869D01*
X136364671Y-102636486D01*
X136120702Y-102564903D01*
X135307605Y-103378000D01*
X134948395Y-103378000D01*
X134135298Y-102564903D01*
X133891329Y-102636486D01*
X133841246Y-102742331D01*
X133784671Y-102636486D01*
X133540702Y-102564903D01*
X132727605Y-103378000D01*
X132368395Y-103378000D01*
X131555298Y-102564903D01*
X131311329Y-102636486D01*
X131297676Y-102665341D01*
X131162637Y-102463241D01*
X131084694Y-102385298D01*
X131734903Y-102385298D01*
X132548000Y-103198395D01*
X133361097Y-102385298D01*
X134314903Y-102385298D01*
X135128000Y-103198395D01*
X135941097Y-102385298D01*
X135869514Y-102141329D01*
X135614004Y-102020429D01*
X135339816Y-101951700D01*
X135057488Y-101937783D01*
X134777870Y-101979213D01*
X134511708Y-102074397D01*
X134386486Y-102141329D01*
X134314903Y-102385298D01*
X133361097Y-102385298D01*
X133289514Y-102141329D01*
X133034004Y-102020429D01*
X132759816Y-101951700D01*
X132477488Y-101937783D01*
X132197870Y-101979213D01*
X131931708Y-102074397D01*
X131806486Y-102141329D01*
X131734903Y-102385298D01*
X131084694Y-102385298D01*
X130962759Y-102263363D01*
X130727727Y-102106320D01*
X130466574Y-101998147D01*
X130189335Y-101943000D01*
X129906665Y-101943000D01*
X129629426Y-101998147D01*
X129368273Y-102106320D01*
X129133241Y-102263363D01*
X128933363Y-102463241D01*
X128776320Y-102698273D01*
X128668147Y-102959426D01*
X128613000Y-103236665D01*
X126398072Y-103236665D01*
X126398072Y-101870000D01*
X126385812Y-101745518D01*
X126349502Y-101625820D01*
X126290537Y-101515506D01*
X126211185Y-101418815D01*
X126114494Y-101339463D01*
X126004180Y-101280498D01*
X125884482Y-101244188D01*
X125760000Y-101231928D01*
X123160000Y-101231928D01*
X123035518Y-101244188D01*
X122915820Y-101280498D01*
X122805506Y-101339463D01*
X122708815Y-101418815D01*
X122629463Y-101515506D01*
X122570498Y-101625820D01*
X122534188Y-101745518D01*
X122521928Y-101870000D01*
X122521928Y-103870000D01*
X122534188Y-103994482D01*
X122570498Y-104114180D01*
X122629463Y-104224494D01*
X122708815Y-104321185D01*
X122805506Y-104400537D01*
X122852655Y-104425739D01*
X122793969Y-104497248D01*
X122642148Y-104781285D01*
X122548657Y-105089484D01*
X122517089Y-105410000D01*
X116967000Y-105410000D01*
X116967000Y-101175117D01*
X117391000Y-101175117D01*
X117391000Y-101516883D01*
X117457675Y-101852081D01*
X117588463Y-102167831D01*
X117778337Y-102451998D01*
X118020002Y-102693663D01*
X118304169Y-102883537D01*
X118619919Y-103014325D01*
X118955117Y-103081000D01*
X119296883Y-103081000D01*
X119632081Y-103014325D01*
X119947831Y-102883537D01*
X120231998Y-102693663D01*
X120473663Y-102451998D01*
X120663537Y-102167831D01*
X120794325Y-101852081D01*
X120861000Y-101516883D01*
X120861000Y-101175117D01*
X120794325Y-100839919D01*
X120663537Y-100524169D01*
X120474999Y-100242000D01*
X148625928Y-100242000D01*
X148625928Y-101942000D01*
X148638188Y-102066482D01*
X148674498Y-102186180D01*
X148733463Y-102296494D01*
X148812815Y-102393185D01*
X148909506Y-102472537D01*
X149019820Y-102531502D01*
X149139518Y-102567812D01*
X149264000Y-102580072D01*
X150964000Y-102580072D01*
X151088482Y-102567812D01*
X151208180Y-102531502D01*
X151318494Y-102472537D01*
X151415185Y-102393185D01*
X151494537Y-102296494D01*
X151553502Y-102186180D01*
X151575513Y-102113620D01*
X151707368Y-102245475D01*
X151950589Y-102407990D01*
X152220842Y-102519932D01*
X152507740Y-102577000D01*
X152800260Y-102577000D01*
X153087158Y-102519932D01*
X153357411Y-102407990D01*
X153600632Y-102245475D01*
X153807475Y-102038632D01*
X153924000Y-101864240D01*
X154040525Y-102038632D01*
X154247368Y-102245475D01*
X154490589Y-102407990D01*
X154760842Y-102519932D01*
X155047740Y-102577000D01*
X155340260Y-102577000D01*
X155627158Y-102519932D01*
X155897411Y-102407990D01*
X156140632Y-102245475D01*
X156347475Y-102038632D01*
X156509990Y-101795411D01*
X156621932Y-101525158D01*
X156679000Y-101238260D01*
X156679000Y-101175117D01*
X161079000Y-101175117D01*
X161079000Y-101516883D01*
X161145675Y-101852081D01*
X161276463Y-102167831D01*
X161466337Y-102451998D01*
X161708002Y-102693663D01*
X161992169Y-102883537D01*
X162307919Y-103014325D01*
X162643117Y-103081000D01*
X162984883Y-103081000D01*
X163320081Y-103014325D01*
X163635831Y-102883537D01*
X163919998Y-102693663D01*
X164161663Y-102451998D01*
X164351537Y-102167831D01*
X164482325Y-101852081D01*
X164549000Y-101516883D01*
X164549000Y-101175117D01*
X164482325Y-100839919D01*
X164351537Y-100524169D01*
X164161663Y-100240002D01*
X163919998Y-99998337D01*
X163635831Y-99808463D01*
X163320081Y-99677675D01*
X162984883Y-99611000D01*
X162643117Y-99611000D01*
X162307919Y-99677675D01*
X161992169Y-99808463D01*
X161708002Y-99998337D01*
X161466337Y-100240002D01*
X161276463Y-100524169D01*
X161145675Y-100839919D01*
X161079000Y-101175117D01*
X156679000Y-101175117D01*
X156679000Y-100945740D01*
X156621932Y-100658842D01*
X156509990Y-100388589D01*
X156347475Y-100145368D01*
X156140632Y-99938525D01*
X155897411Y-99776010D01*
X155627158Y-99664068D01*
X155340260Y-99607000D01*
X155047740Y-99607000D01*
X154760842Y-99664068D01*
X154490589Y-99776010D01*
X154247368Y-99938525D01*
X154040525Y-100145368D01*
X153924000Y-100319760D01*
X153807475Y-100145368D01*
X153600632Y-99938525D01*
X153357411Y-99776010D01*
X153087158Y-99664068D01*
X152800260Y-99607000D01*
X152507740Y-99607000D01*
X152220842Y-99664068D01*
X151950589Y-99776010D01*
X151707368Y-99938525D01*
X151575513Y-100070380D01*
X151553502Y-99997820D01*
X151494537Y-99887506D01*
X151415185Y-99790815D01*
X151318494Y-99711463D01*
X151208180Y-99652498D01*
X151088482Y-99616188D01*
X150964000Y-99603928D01*
X149264000Y-99603928D01*
X149139518Y-99616188D01*
X149019820Y-99652498D01*
X148909506Y-99711463D01*
X148812815Y-99790815D01*
X148733463Y-99887506D01*
X148674498Y-99997820D01*
X148638188Y-100117518D01*
X148625928Y-100242000D01*
X120474999Y-100242000D01*
X120473663Y-100240002D01*
X120231998Y-99998337D01*
X119947831Y-99808463D01*
X119632081Y-99677675D01*
X119296883Y-99611000D01*
X118955117Y-99611000D01*
X118619919Y-99677675D01*
X118304169Y-99808463D01*
X118020002Y-99998337D01*
X117778337Y-100240002D01*
X117588463Y-100524169D01*
X117457675Y-100839919D01*
X117391000Y-101175117D01*
X116967000Y-101175117D01*
X116967000Y-99187000D01*
X164973000Y-99187000D01*
X164973000Y-121793000D01*
M02*
