M48
;DRILL file {KiCad (5.0.0)} date 09/26/18 11:49:56
;FORMAT={-:-/ absolute / inch / decimal}
FMAT,2
INCH,TZ
T1C0.0315
T2C0.0394
T3C0.0400
T4C0.0472
T5C0.0866
%
G90
G05
M72
T1
X5.42Y-4.33
X5.42Y-4.63
X5.12Y-4.07
X5.4184Y-4.07
X5.12Y-4.19
X5.42Y-4.19
X6.2424Y-4.12
X6.2424Y-4.42
X5.12Y-4.33
X5.12Y-4.43
X5.12Y-4.53
X5.12Y-4.63
X5.42Y-4.43
X5.42Y-4.53
X5.2184Y-4.07
X5.32Y-4.07
X6.3924Y-4.12
X6.3924Y-4.42
T2
X5.91Y-3.98
X6.01Y-3.98
X6.11Y-3.98
T3
X5.64Y-4.28
X5.64Y-4.38
X5.64Y-4.48
X5.74Y-4.28
X5.74Y-4.38
X5.74Y-4.48
T4
X4.84Y-4.43
X4.84Y-4.53
X4.84Y-4.63
X4.84Y-4.07
X4.84Y-4.17
X4.84Y-4.27
X6.03Y-4.13
X6.03Y-4.23
X6.03Y-4.33
X6.03Y-4.43
X6.03Y-4.53
T5
X6.41Y-3.99
X4.69Y-4.71
X6.41Y-4.71
X4.69Y-3.99
T0
M30
